<svg version="1.1" id="Layer_1" xmlns="http://www.w3.org/2000/svg" xmlns:xlink="http://www.w3.org/1999/xlink" x="0px" y="0px"
	 width="100%" viewBox="0 0 1152 1243" enable-background="new 0 0 1152 1243" xml:space="preserve">
<path fill="#000000" opacity="1.000000" stroke="none" 
	d="
M582.000000,1244.000000 
	C388.000000,1244.000000 194.500000,1244.000000 1.000000,1244.000000 
	C1.000000,829.666687 1.000000,415.333344 1.000000,1.000000 
	C385.000000,1.000000 769.000000,1.000000 1153.000000,1.000000 
	C1153.000000,415.333344 1153.000000,829.666687 1153.000000,1244.000000 
	C962.833313,1244.000000 772.666687,1244.000000 582.000000,1244.000000 
M971.889771,756.572632 
	C965.445251,744.110535 959.000671,731.648438 952.462646,719.005615 
	C952.092590,719.169617 951.009766,719.582703 949.987549,720.112610 
	C929.226379,730.875122 902.063232,725.214233 888.659729,706.173035 
	C881.970764,696.670593 876.078735,686.596008 870.046326,676.646729 
	C866.227417,670.348328 864.714478,669.283875 858.018799,672.252686 
	C849.516113,676.022583 840.994019,679.947388 833.057373,684.757629 
	C810.386719,698.497864 785.756287,684.331665 779.901611,663.545410 
	C777.502991,655.029236 776.009155,646.258301 773.944824,636.881653 
	C757.022339,658.907532 740.258606,680.726807 723.419128,702.644592 
	C727.345398,705.536438 729.575378,708.443604 726.958557,712.704346 
	C724.380371,716.902283 719.765930,717.786499 713.588196,715.479492 
	C700.978699,729.415222 688.415283,743.299988 675.751038,757.296204 
	C686.169189,759.898682 696.303406,762.306641 706.356079,765.017212 
	C709.347900,765.824036 712.395325,767.076538 714.907043,768.848145 
	C718.098999,771.099548 718.228577,775.893250 715.759705,778.643311 
	C713.171204,781.526855 710.000916,781.437805 706.613708,778.547607 
	C705.515930,777.610840 704.245178,776.600891 702.896851,776.277344 
	C692.396484,773.757690 681.890076,771.242432 671.319885,769.041443 
	C664.055237,767.528748 661.061584,769.790955 658.911377,777.017090 
	C658.447144,778.577087 656.972473,779.970215 655.678833,781.120361 
	C653.310913,783.225525 650.361938,784.773010 648.322632,787.130371 
	C644.955017,791.023315 642.278381,795.505371 639.030029,799.511780 
	C619.659241,823.402649 603.463013,849.335266 589.263000,876.557556 
	C577.045532,899.979370 570.060059,924.676758 571.239807,951.333252 
	C571.872803,965.636292 572.153564,979.967224 573.260315,994.233765 
	C574.424438,1009.240356 577.452820,1023.857849 585.663208,1036.915283 
	C587.111938,1039.219238 588.255310,1041.060913 591.495239,1041.534058 
	C593.307556,1041.798584 596.013550,1044.661255 596.014954,1046.355225 
	C596.016663,1048.376709 593.998779,1051.232910 592.073364,1052.258301 
	C587.311707,1054.794067 581.927185,1053.553711 579.375000,1048.966187 
	C574.794250,1040.732422 570.262878,1032.342041 566.983826,1023.542725 
	C561.700378,1009.364868 560.853088,994.251892 560.464600,979.290344 
	C560.010925,961.822327 559.270935,944.234009 560.741699,926.874634 
	C562.812134,902.439575 573.267822,880.493591 584.920593,859.231445 
	C601.545166,828.897705 622.167236,801.291321 643.320190,774.056946 
	C646.681885,769.728760 644.671021,763.881104 639.264160,762.820984 
	C630.128723,761.029968 620.993408,759.203918 611.798828,757.772766 
	C609.407959,757.400635 606.493896,757.845032 604.351379,758.947021 
	C599.784241,761.296082 595.718262,764.610779 591.175171,767.016663 
	C576.656189,774.705750 561.766174,781.724182 547.477783,789.811401 
	C527.821167,800.936951 506.395325,806.844482 484.733612,811.855225 
	C471.653107,814.880920 458.128784,815.964294 444.837128,818.125000 
	C442.749054,818.464478 439.863892,819.375183 439.041168,820.922424 
	C437.131592,824.513672 436.015167,828.595032 435.018219,832.587830 
	C433.369202,839.192139 432.359222,845.965759 430.507019,852.505798 
	C429.450470,856.236328 426.847839,859.513855 425.660583,863.225403 
	C422.781342,872.226440 420.773041,881.523132 417.594421,890.407532 
	C412.222656,905.421936 404.971985,919.868408 400.778259,935.174866 
	C394.862915,956.764832 390.818024,978.881287 386.371033,1000.853088 
	C384.438446,1010.401672 387.792847,1019.323730 391.969086,1027.731812 
	C394.410553,1032.647217 398.021484,1032.536987 400.855408,1027.812500 
	C403.335449,1023.677979 405.474701,1019.340759 407.861877,1015.148499 
	C413.453796,1005.328003 418.473419,995.110168 427.640381,987.841492 
	C431.824585,984.523621 435.272034,983.944458 437.780090,986.630798 
	C440.224365,989.248779 439.334839,992.998718 435.664337,996.620667 
	C432.714050,999.531860 429.405823,1002.287476 427.209717,1005.721680 
	C414.088165,1026.241211 405.127472,1048.741943 396.500031,1071.389038 
	C396.000427,1072.700439 394.819397,1073.767944 393.891479,1074.896362 
	C392.755676,1076.277588 391.320312,1077.464722 390.417542,1078.976562 
	C386.076904,1086.245728 382.351654,1093.933594 377.495850,1100.830688 
	C371.644409,1109.141968 368.760895,1118.340088 367.221680,1128.092651 
	C365.794220,1137.137207 367.026398,1139.894897 375.433716,1143.353394 
	C395.504333,1151.610352 416.107025,1157.995605 438.134552,1157.844971 
	C448.444641,1157.774536 458.750671,1157.193481 469.061157,1157.079590 
	C491.718109,1156.829102 514.377075,1156.769653 537.034485,1156.552368 
	C552.346619,1156.405518 567.720642,1156.919800 582.953735,1155.711182 
	C605.128357,1153.951660 627.217163,1151.040161 649.310974,1148.359131 
	C661.844910,1146.838135 674.264771,1143.889160 686.825928,1143.183838 
	C710.911621,1141.831665 735.065186,1141.727905 759.181946,1140.864868 
	C765.807129,1140.627930 772.433533,1139.747681 778.999146,1138.761841 
	C783.370117,1138.105591 787.790588,1133.101074 786.772644,1129.975342 
	C784.208496,1122.101562 781.183594,1114.377808 778.351685,1106.590942 
	C777.328918,1103.778809 775.245728,1103.708984 772.703369,1104.101440 
	C751.669006,1107.348022 730.684753,1111.048706 709.557068,1113.512451 
	C696.551636,1115.029053 683.310059,1115.115112 670.198792,1114.807617 
	C665.604919,1114.699951 660.811890,1111.948853 656.684753,1109.453857 
	C655.344971,1108.643921 654.776062,1104.125122 655.791138,1102.554688 
	C656.759644,1101.056274 660.782776,1100.011841 662.539673,1100.807373 
	C670.022583,1104.195312 677.788147,1104.233643 685.591492,1103.732178 
	C720.019897,1101.519897 753.992065,1095.929443 787.808350,1089.360474 
	C813.218811,1084.424194 837.244812,1075.003418 861.467163,1066.203369 
	C884.404907,1057.869995 904.833374,1045.136353 924.410522,1030.921387 
	C944.773682,1016.135498 961.715942,997.705444 978.133545,978.840698 
	C993.438049,961.254822 1004.667175,941.272034 1009.563965,918.332031 
	C1012.194702,906.007935 1013.406982,893.374451 1015.109985,880.860229 
	C1018.832886,853.503906 1022.464233,826.135132 1026.120361,798.769714 
	C1026.463989,796.197205 1026.717773,793.612610 1027.033936,790.852539 
	C1018.829102,790.907166 1014.668945,786.428101 1012.040955,779.868225 
	C1010.275696,775.462097 1008.353394,771.118896 1006.350647,766.391907 
	C999.313171,770.551086 992.408569,770.805908 985.927795,767.089233 
	C981.082275,764.310425 976.828247,760.500244 971.889771,756.572632 
M491.684937,798.118408 
	C526.901245,790.520203 556.935791,771.508240 589.354980,754.372070 
	C586.744507,754.192383 585.605957,754.150696 584.475708,754.030518 
	C575.058838,753.028748 565.619690,752.187378 556.240234,750.908936 
	C552.810303,750.441467 550.367615,748.048096 551.081665,744.196899 
	C551.832214,740.148254 554.827209,739.153748 558.630554,739.550598 
	C572.867249,741.036133 587.103699,742.542908 601.363770,743.767700 
	C603.430115,743.945190 605.968994,743.122559 607.699097,741.916199 
	C614.384766,737.254883 620.939514,732.386963 627.325562,727.321777 
	C631.016968,724.393982 634.292603,720.941833 638.452271,717.078308 
	C636.206909,717.078308 634.929688,716.998962 633.664734,717.090332 
	C618.883667,718.158386 604.061707,718.857544 589.336914,720.451416 
	C574.991821,722.004272 560.725159,724.346680 546.471741,726.638428 
	C542.669128,727.249878 539.429199,727.656250 537.734375,723.435425 
	C536.401794,720.116821 538.548096,716.666260 543.067444,715.315002 
	C547.677002,713.936707 552.358948,712.392090 557.105347,711.947449 
	C583.617493,709.463928 610.127441,706.703613 636.704651,705.286255 
	C648.264465,704.669678 657.080566,701.933228 663.216309,691.510071 
	C667.323792,684.532349 673.356995,678.686523 677.447571,671.701172 
	C682.131165,663.703247 686.317383,655.257324 689.463318,646.552063 
	C694.340393,633.056702 702.665039,620.705933 703.425171,605.795471 
	C703.569031,602.974426 703.678467,600.113342 704.233765,597.357361 
	C711.034302,563.605347 710.297546,529.507935 708.673523,495.412964 
	C708.321777,488.027161 707.779358,479.884338 704.445374,473.623474 
	C701.149048,467.433197 702.372559,462.243988 703.193054,456.592438 
	C704.888123,444.917542 707.313782,433.342468 708.802429,421.645325 
	C711.299011,402.026642 713.257996,382.340057 715.518494,362.690704 
	C717.590210,344.682434 719.969543,326.707123 721.832703,308.677948 
	C723.850464,289.152435 725.666138,269.599243 727.131348,250.025299 
	C728.667358,229.505508 733.140991,209.215988 731.110535,188.399338 
	C729.398804,170.849945 728.261780,153.274033 723.420166,136.189117 
	C721.564758,129.641739 720.231079,122.947319 718.620911,116.329300 
	C717.386963,111.257515 716.092224,106.200493 714.676819,100.547089 
	C711.363220,102.523071 708.790466,103.734375 706.587219,105.426704 
	C696.705811,113.016479 686.606812,120.370743 677.203308,128.521805 
	C667.172180,137.216919 656.596191,145.733353 648.441223,156.052979 
	C629.162659,180.448746 609.664429,204.861633 595.534546,232.824158 
	C585.274475,253.128296 574.597839,273.307709 565.876709,294.278748 
	C557.734131,313.858582 551.787476,334.363556 545.138000,354.548187 
	C540.830750,367.623077 536.857422,380.813202 533.000977,394.029449 
	C530.444641,402.790558 528.625061,411.769409 525.985291,420.502533 
	C523.633179,428.283905 520.411316,430.800720 512.478699,430.201538 
	C503.580872,429.529419 494.437469,428.839935 485.996979,426.230286 
	C475.979858,423.133148 466.114868,420.954315 455.686646,421.835724 
	C449.005402,422.400421 445.337433,418.964966 442.495422,413.370544 
	C432.326538,393.353424 422.498199,373.131104 411.477173,353.586334 
	C393.500854,321.706848 374.651855,290.320160 356.239197,258.685883 
	C338.895844,228.888733 320.835388,199.622604 298.982483,172.782425 
	C288.331299,159.700424 275.599121,149.290268 262.028748,139.091400 
	C261.653320,140.315628 261.234100,141.217407 261.109070,142.158295 
	C257.997437,165.573578 254.691528,188.966049 251.884644,212.418152 
	C247.881439,245.865662 245.456055,279.473236 247.046082,313.135925 
	C247.890579,331.015411 249.385712,349.222198 253.751007,366.480988 
	C258.530121,385.375793 266.816620,403.402100 273.862396,421.696014 
	C276.784576,429.283386 280.109253,436.762329 283.862427,443.972260 
	C289.617004,455.026886 296.174561,465.666504 301.832153,476.767242 
	C304.301239,481.611938 305.452881,487.009033 301.974823,492.425049 
	C299.893982,495.665436 298.683990,499.469971 297.130859,503.041931 
	C296.475128,504.549957 296.389191,506.674530 295.279572,507.553192 
	C290.211731,511.566132 289.559814,517.538208 288.115570,523.044373 
	C278.855469,558.348816 273.954041,594.483887 268.184296,630.437378 
	C265.551270,646.844666 263.882843,663.421570 262.231598,679.966919 
	C260.981232,692.495178 260.451538,705.095398 259.568878,718.140320 
	C262.300446,717.760864 264.086639,717.335999 265.880524,717.300537 
	C269.540466,717.228210 272.671173,718.376892 273.113617,722.536743 
	C273.527008,726.423767 270.961853,728.240723 267.503082,728.936340 
	C264.780670,729.483887 262.025940,729.870483 258.715820,730.423828 
	C258.715820,749.460632 258.715820,768.149109 258.715820,786.963379 
	C263.789581,783.839661 268.280121,780.320312 273.349915,778.161255 
	C278.647522,775.905212 284.457703,774.757446 290.125610,773.491699 
	C296.549072,772.057129 302.536926,772.897156 306.555420,778.855591 
	C310.061676,784.054565 313.989410,789.144165 316.417969,794.841736 
	C318.496613,799.718323 321.802094,801.400269 326.312317,802.535400 
	C348.711334,808.172791 371.387390,811.312805 394.531525,810.361450 
	C401.035889,810.094116 406.731842,811.188416 412.811890,804.781616 
	C423.009644,794.036255 435.962280,785.908569 447.735443,776.653564 
	C452.637726,772.799866 458.221985,770.966003 464.404083,770.962097 
	C470.863373,770.957947 474.931915,774.048096 477.277039,780.018799 
	C480.352325,787.848267 478.542175,794.906372 473.328400,802.610596 
	C479.995361,800.987488 485.445648,799.660583 491.684937,798.118408 
M885.458801,680.078186 
	C887.670166,683.794006 889.859558,687.523132 892.096436,691.223511 
	C906.022400,714.260925 928.692993,720.038330 949.515564,707.023071 
	C956.512817,702.649414 961.374878,705.302002 964.598877,713.047241 
	C969.497375,724.815247 974.244507,736.753784 980.450928,747.838867 
	C986.372620,758.415527 995.019043,759.575500 1004.892639,752.975647 
	C1005.169556,752.790527 1005.437378,752.589905 1005.724915,752.423096 
	C1010.453308,749.679565 1014.384460,751.345520 1016.193604,756.611389 
	C1018.346191,762.876709 1020.583740,769.121399 1023.082397,775.253601 
	C1023.730652,776.844666 1025.490601,777.982727 1026.739990,779.328857 
	C1027.469727,779.062256 1028.199585,778.795654 1028.929321,778.529053 
	C1028.929321,765.072693 1028.553467,751.602661 1029.039307,738.163879 
	C1029.489014,725.726624 1030.620483,713.297729 1031.901367,700.911682 
	C1032.960205,690.673035 1035.864990,680.502014 1035.861816,670.301636 
	C1035.854004,646.008850 1035.957275,621.570801 1033.353760,597.479065 
	C1031.817627,583.263733 1025.974487,569.289429 1020.591980,555.795532 
	C1017.178650,547.238281 1010.535278,541.140747 999.460266,543.208435 
	C991.549072,544.685364 985.643982,540.812073 981.688843,533.936035 
	C977.046753,525.865845 972.279053,517.864380 967.810486,509.699188 
	C965.470398,505.423126 962.442566,504.016724 958.001709,506.092590 
	C956.205750,506.932098 954.473999,507.922211 952.764221,508.930634 
	C946.898315,512.390442 941.246033,516.275452 935.157898,519.280334 
	C926.344299,523.630493 920.371094,520.552795 917.963623,511.079071 
	C915.919800,503.036194 914.040161,494.947113 911.792175,486.961670 
	C908.138733,473.983582 901.236206,462.810608 891.803711,451.807098 
	C888.674744,458.345276 885.173523,463.900848 883.261414,469.958099 
	C874.453979,497.858276 858.067749,521.569641 841.583740,545.073547 
	C824.486938,569.450989 806.158875,592.964539 788.407593,616.884399 
	C787.545349,618.046265 786.459290,619.489990 786.477661,620.788330 
	C786.670654,634.415222 786.515930,648.096863 791.374634,661.175903 
	C796.582703,675.195435 812.174194,683.491028 827.024902,674.638611 
	C835.973999,669.304260 845.492798,664.735107 855.172913,660.866516 
	C866.957153,656.157166 873.806213,659.195312 879.985046,670.291260 
	C881.684387,673.342834 883.384033,676.394287 885.458801,680.078186 
M444.773499,806.062256 
	C453.305420,805.813843 458.033112,799.199646 463.785919,794.455261 
	C467.282715,791.571411 468.398407,785.010620 465.799377,784.019043 
	C463.221313,783.035461 458.925323,783.390076 456.769592,785.006897 
	C446.962463,792.362061 437.644348,800.369385 428.150391,808.142151 
	C428.257385,808.395630 428.364410,808.649048 428.471405,808.902527 
	C433.625092,807.999390 438.778748,807.096313 444.773499,806.062256 
M623.401855,744.883972 
	C622.666565,745.688354 621.931213,746.492676 620.807068,747.722473 
	C625.444885,748.528137 629.470703,749.227417 634.920715,750.174194 
	C632.199951,746.594482 630.288757,744.080017 628.283325,741.441528 
	C626.391235,742.740906 625.168091,743.580811 623.401855,744.883972 
z"/>
<path fill="#FE8D00" opacity="1.000000" stroke="none" 
	d="
M972.100342,756.860962 
	C976.828247,760.500244 981.082275,764.310425 985.927795,767.089233 
	C992.408569,770.805908 999.313171,770.551086 1006.350647,766.391907 
	C1008.353394,771.118896 1010.275696,775.462097 1012.040955,779.868225 
	C1014.668945,786.428101 1018.829102,790.907166 1027.033936,790.852539 
	C1026.717773,793.612610 1026.463989,796.197205 1026.120361,798.769714 
	C1022.464233,826.135132 1018.832886,853.503906 1015.109985,880.860229 
	C1013.406982,893.374451 1012.194702,906.007935 1009.563965,918.332031 
	C1004.667175,941.272034 993.438049,961.254822 978.133545,978.840698 
	C961.715942,997.705444 944.773682,1016.135498 924.410522,1030.921387 
	C904.833374,1045.136353 884.404907,1057.869995 861.467163,1066.203369 
	C837.244812,1075.003418 813.218811,1084.424194 787.808350,1089.360474 
	C753.992065,1095.929443 720.019897,1101.519897 685.591492,1103.732178 
	C677.788147,1104.233643 670.022583,1104.195312 662.539673,1100.807373 
	C660.782776,1100.011841 656.759644,1101.056274 655.791138,1102.554688 
	C654.776062,1104.125122 655.344971,1108.643921 656.684753,1109.453857 
	C660.811890,1111.948853 665.604919,1114.699951 670.198792,1114.807617 
	C683.310059,1115.115112 696.551636,1115.029053 709.557068,1113.512451 
	C730.684753,1111.048706 751.669006,1107.348022 772.703369,1104.101440 
	C775.245728,1103.708984 777.328918,1103.778809 778.351685,1106.590942 
	C781.183594,1114.377808 784.208496,1122.101562 786.772644,1129.975342 
	C787.790588,1133.101074 783.370117,1138.105591 778.999146,1138.761841 
	C772.433533,1139.747681 765.807129,1140.627930 759.181946,1140.864868 
	C735.065186,1141.727905 710.911621,1141.831665 686.825928,1143.183838 
	C674.264771,1143.889160 661.844910,1146.838135 649.310974,1148.359131 
	C627.217163,1151.040161 605.128357,1153.951660 582.953735,1155.711182 
	C567.720642,1156.919800 552.346619,1156.405518 537.034485,1156.552368 
	C514.377075,1156.769653 491.718109,1156.829102 469.061157,1157.079590 
	C458.750671,1157.193481 448.444641,1157.774536 438.134552,1157.844971 
	C416.107025,1157.995605 395.504333,1151.610352 375.433716,1143.353394 
	C367.026398,1139.894897 365.794220,1137.137207 367.221680,1128.092651 
	C368.760895,1118.340088 371.644409,1109.141968 377.495850,1100.830688 
	C382.351654,1093.933594 386.076904,1086.245728 390.417542,1078.976562 
	C391.320312,1077.464722 392.755676,1076.277588 393.891479,1074.896362 
	C394.819397,1073.767944 396.000427,1072.700439 396.500031,1071.389038 
	C405.127472,1048.741943 414.088165,1026.241211 427.209717,1005.721680 
	C429.405823,1002.287476 432.714050,999.531860 435.664337,996.620667 
	C439.334839,992.998718 440.224365,989.248779 437.780090,986.630798 
	C435.272034,983.944458 431.824585,984.523621 427.640381,987.841492 
	C418.473419,995.110168 413.453796,1005.328003 407.861877,1015.148499 
	C405.474701,1019.340759 403.335449,1023.677979 400.855408,1027.812500 
	C398.021484,1032.536987 394.410553,1032.647217 391.969086,1027.731812 
	C387.792847,1019.323730 384.438446,1010.401672 386.371033,1000.853088 
	C390.818024,978.881287 394.862915,956.764832 400.778259,935.174866 
	C404.971985,919.868408 412.222656,905.421936 417.594421,890.407532 
	C420.773041,881.523132 422.781342,872.226440 425.660583,863.225403 
	C426.847839,859.513855 429.450470,856.236328 430.507019,852.505798 
	C432.359222,845.965759 433.369202,839.192139 435.018219,832.587830 
	C436.015167,828.595032 437.131592,824.513672 439.041168,820.922424 
	C439.863892,819.375183 442.749054,818.464478 444.837128,818.125000 
	C458.128784,815.964294 471.653107,814.880920 484.733612,811.855225 
	C506.395325,806.844482 527.821167,800.936951 547.477783,789.811401 
	C561.766174,781.724182 576.656189,774.705750 591.175171,767.016663 
	C595.718262,764.610779 599.784241,761.296082 604.351379,758.947021 
	C606.493896,757.845032 609.407959,757.400635 611.798828,757.772766 
	C620.993408,759.203918 630.128723,761.029968 639.264160,762.820984 
	C644.671021,763.881104 646.681885,769.728760 643.320190,774.056946 
	C622.167236,801.291321 601.545166,828.897705 584.920593,859.231445 
	C573.267822,880.493591 562.812134,902.439575 560.741699,926.874634 
	C559.270935,944.234009 560.010925,961.822327 560.464600,979.290344 
	C560.853088,994.251892 561.700378,1009.364868 566.983826,1023.542725 
	C570.262878,1032.342041 574.794250,1040.732422 579.375000,1048.966187 
	C581.927185,1053.553711 587.311707,1054.794067 592.073364,1052.258301 
	C593.998779,1051.232910 596.016663,1048.376709 596.014954,1046.355225 
	C596.013550,1044.661255 593.307556,1041.798584 591.495239,1041.534058 
	C588.255310,1041.060913 587.111938,1039.219238 585.663208,1036.915283 
	C577.452820,1023.857849 574.424438,1009.240356 573.260315,994.233765 
	C572.153564,979.967224 571.872803,965.636292 571.239807,951.333252 
	C570.060059,924.676758 577.045532,899.979370 589.263000,876.557556 
	C603.463013,849.335266 619.659241,823.402649 639.030029,799.511780 
	C642.278381,795.505371 644.955017,791.023315 648.322632,787.130371 
	C650.361938,784.773010 653.310913,783.225525 655.678833,781.120361 
	C656.972473,779.970215 658.447144,778.577087 658.911377,777.017090 
	C661.061584,769.790955 664.055237,767.528748 671.319885,769.041443 
	C681.890076,771.242432 692.396484,773.757690 702.896851,776.277344 
	C704.245178,776.600891 705.515930,777.610840 706.613708,778.547607 
	C710.000916,781.437805 713.171204,781.526855 715.759705,778.643311 
	C718.228577,775.893250 718.098999,771.099548 714.907043,768.848145 
	C712.395325,767.076538 709.347900,765.824036 706.356079,765.017212 
	C696.303406,762.306641 686.169189,759.898682 675.751038,757.296204 
	C688.415283,743.299988 700.978699,729.415222 713.588196,715.479492 
	C719.765930,717.786499 724.380371,716.902283 726.958557,712.704346 
	C729.575378,708.443604 727.345398,705.536438 723.419128,702.644592 
	C740.258606,680.726807 757.022339,658.907532 773.944824,636.881653 
	C776.009155,646.258301 777.502991,655.029236 779.901611,663.545410 
	C785.756287,684.331665 810.386719,698.497864 833.057373,684.757629 
	C840.994019,679.947388 849.516113,676.022583 858.018799,672.252686 
	C864.714478,669.283875 866.227417,670.348328 870.046326,676.646729 
	C876.078735,686.596008 881.970764,696.670593 888.659729,706.173035 
	C902.063232,725.214233 929.226379,730.875122 949.987549,720.112610 
	C951.009766,719.582703 952.092590,719.169617 952.462646,719.005615 
	C959.000671,731.648438 965.445251,744.110535 972.100342,756.860962 
z"/>
<path fill="#FE8D00" opacity="1.000000" stroke="none" 
	d="
M491.290436,798.226074 
	C485.445648,799.660583 479.995361,800.987488 473.328400,802.610596 
	C478.542175,794.906372 480.352325,787.848267 477.277039,780.018799 
	C474.931915,774.048096 470.863373,770.957947 464.404083,770.962097 
	C458.221985,770.966003 452.637726,772.799866 447.735443,776.653564 
	C435.962280,785.908569 423.009644,794.036255 412.811890,804.781616 
	C406.731842,811.188416 401.035889,810.094116 394.531525,810.361450 
	C371.387390,811.312805 348.711334,808.172791 326.312317,802.535400 
	C321.802094,801.400269 318.496613,799.718323 316.417969,794.841736 
	C313.989410,789.144165 310.061676,784.054565 306.555420,778.855591 
	C302.536926,772.897156 296.549072,772.057129 290.125610,773.491699 
	C284.457703,774.757446 278.647522,775.905212 273.349915,778.161255 
	C268.280121,780.320312 263.789581,783.839661 258.715820,786.963379 
	C258.715820,768.149109 258.715820,749.460632 258.715820,730.423828 
	C262.025940,729.870483 264.780670,729.483887 267.503082,728.936340 
	C270.961853,728.240723 273.527008,726.423767 273.113617,722.536743 
	C272.671173,718.376892 269.540466,717.228210 265.880524,717.300537 
	C264.086639,717.335999 262.300446,717.760864 259.568878,718.140320 
	C260.451538,705.095398 260.981232,692.495178 262.231598,679.966919 
	C263.882843,663.421570 265.551270,646.844666 268.184296,630.437378 
	C273.954041,594.483887 278.855469,558.348816 288.115570,523.044373 
	C289.559814,517.538208 290.211731,511.566132 295.279572,507.553192 
	C296.389191,506.674530 296.475128,504.549957 297.130859,503.041931 
	C298.683990,499.469971 299.893982,495.665436 301.974823,492.425049 
	C305.452881,487.009033 304.301239,481.611938 301.832153,476.767242 
	C296.174561,465.666504 289.617004,455.026886 283.862427,443.972260 
	C280.109253,436.762329 276.784576,429.283386 273.862396,421.696014 
	C266.816620,403.402100 258.530121,385.375793 253.751007,366.480988 
	C249.385712,349.222198 247.890579,331.015411 247.046082,313.135925 
	C245.456055,279.473236 247.881439,245.865662 251.884644,212.418152 
	C254.691528,188.966049 257.997437,165.573578 261.109070,142.158295 
	C261.234100,141.217407 261.653320,140.315628 262.028748,139.091400 
	C275.599121,149.290268 288.331299,159.700424 298.982483,172.782425 
	C320.835388,199.622604 338.895844,228.888733 356.239197,258.685883 
	C374.651855,290.320160 393.500854,321.706848 411.477173,353.586334 
	C422.498199,373.131104 432.326538,393.353424 442.495422,413.370544 
	C445.337433,418.964966 449.005402,422.400421 455.686646,421.835724 
	C466.114868,420.954315 475.979858,423.133148 485.996979,426.230286 
	C494.437469,428.839935 503.580872,429.529419 512.478699,430.201538 
	C520.411316,430.800720 523.633179,428.283905 525.985291,420.502533 
	C528.625061,411.769409 530.444641,402.790558 533.000977,394.029449 
	C536.857422,380.813202 540.830750,367.623077 545.138000,354.548187 
	C551.787476,334.363556 557.734131,313.858582 565.876709,294.278748 
	C574.597839,273.307709 585.274475,253.128296 595.534546,232.824158 
	C609.664429,204.861633 629.162659,180.448746 648.441223,156.052979 
	C656.596191,145.733353 667.172180,137.216919 677.203308,128.521805 
	C686.606812,120.370743 696.705811,113.016479 706.587219,105.426704 
	C708.790466,103.734375 711.363220,102.523071 714.676819,100.547089 
	C716.092224,106.200493 717.386963,111.257515 718.620911,116.329300 
	C720.231079,122.947319 721.564758,129.641739 723.420166,136.189117 
	C728.261780,153.274033 729.398804,170.849945 731.110535,188.399338 
	C733.140991,209.215988 728.667358,229.505508 727.131348,250.025299 
	C725.666138,269.599243 723.850464,289.152435 721.832703,308.677948 
	C719.969543,326.707123 717.590210,344.682434 715.518494,362.690704 
	C713.257996,382.340057 711.299011,402.026642 708.802429,421.645325 
	C707.313782,433.342468 704.888123,444.917542 703.193054,456.592438 
	C702.372559,462.243988 701.149048,467.433197 704.445374,473.623474 
	C707.779358,479.884338 708.321777,488.027161 708.673523,495.412964 
	C710.297546,529.507935 711.034302,563.605347 704.233765,597.357361 
	C703.678467,600.113342 703.569031,602.974426 703.425171,605.795471 
	C702.665039,620.705933 694.340393,633.056702 689.463318,646.552063 
	C686.317383,655.257324 682.131165,663.703247 677.447571,671.701172 
	C673.356995,678.686523 667.323792,684.532349 663.216309,691.510071 
	C657.080566,701.933228 648.264465,704.669678 636.704651,705.286255 
	C610.127441,706.703613 583.617493,709.463928 557.105347,711.947449 
	C552.358948,712.392090 547.677002,713.936707 543.067444,715.315002 
	C538.548096,716.666260 536.401794,720.116821 537.734375,723.435425 
	C539.429199,727.656250 542.669128,727.249878 546.471741,726.638428 
	C560.725159,724.346680 574.991821,722.004272 589.336914,720.451416 
	C604.061707,718.857544 618.883667,718.158386 633.664734,717.090332 
	C634.929688,716.998962 636.206909,717.078308 638.452271,717.078308 
	C634.292603,720.941833 631.016968,724.393982 627.325562,727.321777 
	C620.939514,732.386963 614.384766,737.254883 607.699097,741.916199 
	C605.968994,743.122559 603.430115,743.945190 601.363770,743.767700 
	C587.103699,742.542908 572.867249,741.036133 558.630554,739.550598 
	C554.827209,739.153748 551.832214,740.148254 551.081665,744.196899 
	C550.367615,748.048096 552.810303,750.441467 556.240234,750.908936 
	C565.619690,752.187378 575.058838,753.028748 584.475708,754.030518 
	C585.605957,754.150696 586.744507,754.192383 589.354980,754.372070 
	C556.935791,771.508240 526.901245,790.520203 491.290436,798.226074 
M465.999390,739.000000 
	C465.999390,739.000000 465.980957,738.985413 465.990112,739.797058 
	C463.887390,748.298767 466.378906,752.558167 473.433746,750.792480 
	C482.461121,748.533203 490.556946,743.684143 496.637177,736.417480 
	C499.705017,732.750977 497.359680,727.605042 492.545349,727.207458 
	C489.395905,726.947388 486.095276,727.876404 482.935364,728.594177 
	C480.564606,729.132629 478.309998,730.182617 476.000000,731.000000 
	C476.000000,731.000000 475.995667,730.997070 475.990082,730.165833 
	C475.957092,723.726685 472.143250,719.835327 466.483734,721.494629 
	C459.531403,723.533020 453.196045,727.130554 450.049469,734.170837 
	C449.252686,735.953491 449.258606,739.174255 450.369873,740.451965 
	C451.702148,741.983704 454.757446,743.025574 456.807495,742.691162 
	C459.991180,742.171814 462.955994,740.310730 465.999390,739.000000 
M558.873718,392.422699 
	C555.810913,406.189056 552.745422,419.954834 549.686707,433.722107 
	C548.435303,439.354462 549.690613,441.482300 554.830627,443.879578 
	C558.570740,445.623962 562.360229,447.496490 565.631409,449.968628 
	C575.905945,457.733429 587.578979,462.813049 599.765381,465.947693 
	C616.145081,470.160919 632.936829,472.764130 649.536804,476.131897 
	C660.176270,478.290375 663.906494,476.731781 668.770569,467.045624 
	C674.931213,454.777740 679.442383,441.840729 681.076721,428.218872 
	C683.453674,408.408142 685.022583,388.501312 687.012207,368.643066 
	C689.292786,345.880768 690.298523,323.106873 687.027710,300.368500 
	C684.873291,285.391327 682.496033,270.438690 679.821350,255.546356 
	C677.859497,244.623276 670.058167,239.414124 659.058655,241.182999 
	C656.298279,241.626892 653.502686,242.421204 650.963928,243.581192 
	C634.640991,251.039154 621.085632,262.244781 611.841431,277.418243 
	C600.605408,295.860962 589.914001,314.786224 580.877869,334.374969 
	C572.340637,352.882263 566.253845,372.519867 558.873718,392.422699 
M265.680115,282.533661 
	C265.131470,300.068146 266.173859,317.493011 269.923370,334.656891 
	C273.822113,352.503693 278.138428,370.259125 282.058289,388.101532 
	C287.670135,413.645325 299.167816,436.665161 312.842224,458.596100 
	C316.419403,464.333130 322.523346,468.784943 330.626221,466.368195 
	C335.222015,464.997437 340.086121,464.182343 344.359650,462.136017 
	C360.527435,454.394104 375.590027,444.451355 392.807587,438.741577 
	C399.225433,436.613281 402.421509,431.075806 401.203094,423.998230 
	C400.274750,418.605560 399.362976,413.129181 397.611481,407.972717 
	C388.870331,382.237976 377.583008,357.564178 364.201935,333.971313 
	C357.430298,322.031891 349.642975,310.365784 340.596924,300.088226 
	C326.113251,283.632874 310.347504,268.287445 294.776733,252.822189 
	C291.373840,249.442368 286.798798,246.700836 282.257050,245.128860 
	C274.227997,242.349884 268.997101,246.144455 268.056702,254.708481 
	C267.076660,263.634094 266.461914,272.599854 265.680115,282.533661 
M332.899200,605.187683 
	C332.003540,608.205261 331.510559,611.422607 330.132690,614.201050 
	C326.742920,621.036682 323.685883,621.369812 318.960999,615.372986 
	C312.885193,607.661438 308.873413,598.800049 307.829376,589.080261 
	C306.141022,573.361389 305.041382,557.589355 312.317383,542.596191 
	C313.044800,541.097290 312.064484,537.712341 310.716644,536.562439 
	C309.381866,535.423645 305.749969,535.039185 304.589783,536.033020 
	C302.091949,538.172791 299.680328,541.148926 298.734314,544.241821 
	C293.615540,560.976685 293.542145,578.156067 296.842773,595.117737 
	C298.904358,605.711853 303.425995,615.654907 310.665649,624.088623 
	C319.668213,634.576172 331.137421,634.174561 338.697815,622.893250 
	C340.377533,620.386841 341.779907,617.694580 343.491669,614.778381 
	C345.240753,617.987244 346.272552,621.207336 348.360535,623.439453 
	C352.967346,628.364197 357.430725,634.013611 363.161072,637.180969 
	C377.593781,645.158264 387.137299,640.348938 388.242645,625.683716 
	C388.258759,625.469910 388.644562,625.283997 389.187958,624.777161 
	C391.101318,625.718018 393.119965,626.826294 395.226990,627.727966 
	C408.224548,633.290344 421.445801,633.195801 434.655579,628.757690 
	C439.351318,627.180054 441.423035,623.267090 439.891998,619.966064 
	C437.832764,615.526428 434.556854,616.742859 430.622864,617.502869 
	C423.695557,618.841003 416.516510,619.595703 409.472229,619.419495 
	C401.368622,619.216675 394.995087,614.262024 388.422760,609.918518 
	C386.217346,608.460999 381.883575,607.918152 379.853333,609.150208 
	C377.824524,610.381287 376.950409,614.276062 376.497864,617.149231 
	C375.947479,620.643555 376.367126,624.290710 376.367126,628.021667 
	C366.531586,628.271118 361.509857,622.486755 357.606201,615.768738 
	C353.351318,608.446167 350.082275,600.551575 345.846680,593.216309 
	C344.773773,591.358276 341.471313,589.488159 339.537659,589.794739 
	C337.630402,590.097168 335.517853,592.895264 334.655426,595.060547 
	C333.515228,597.923279 333.503937,601.235779 332.899200,605.187683 
M409.654480,675.189087 
	C409.006500,676.523865 408.428314,677.898193 407.699249,679.187134 
	C402.793823,687.859009 402.472412,697.218506 403.932556,706.692261 
	C404.641266,711.290283 408.262726,714.171143 412.580139,714.372192 
	C415.222931,714.495300 419.383514,712.862305 420.453766,710.780029 
	C426.233185,699.535645 426.984680,687.521240 422.512573,675.684570 
	C420.050415,669.167847 414.252655,668.939941 409.654480,675.189087 
M287.197418,656.733948 
	C287.772461,662.625000 287.738586,668.676758 289.230225,674.325806 
	C289.805145,676.503052 293.865906,679.099060 296.304047,679.064697 
	C298.694244,679.031006 301.228729,676.087891 303.320648,674.035217 
	C304.252350,673.120972 304.307739,671.272400 304.669342,669.825073 
	C306.996399,660.511047 307.183563,651.268738 302.157379,642.773804 
	C300.939178,640.714783 297.901703,638.819763 295.561554,638.637573 
	C293.819519,638.501953 290.899689,640.890808 290.182037,642.789429 
	C288.623383,646.913208 288.138245,651.442749 287.197418,656.733948 
z"/>
<path fill="#FEFEFE" opacity="1.000000" stroke="none" 
	d="
M885.271118,679.761963 
	C883.384033,676.394287 881.684387,673.342834 879.985046,670.291260 
	C873.806213,659.195312 866.957153,656.157166 855.172913,660.866516 
	C845.492798,664.735107 835.973999,669.304260 827.024902,674.638611 
	C812.174194,683.491028 796.582703,675.195435 791.374634,661.175903 
	C786.515930,648.096863 786.670654,634.415222 786.477661,620.788330 
	C786.459290,619.489990 787.545349,618.046265 788.407593,616.884399 
	C806.158875,592.964539 824.486938,569.450989 841.583740,545.073547 
	C858.067749,521.569641 874.453979,497.858276 883.261414,469.958099 
	C885.173523,463.900848 888.674744,458.345276 891.803711,451.807098 
	C901.236206,462.810608 908.138733,473.983582 911.792175,486.961670 
	C914.040161,494.947113 915.919800,503.036194 917.963623,511.079071 
	C920.371094,520.552795 926.344299,523.630493 935.157898,519.280334 
	C941.246033,516.275452 946.898315,512.390442 952.764221,508.930634 
	C954.473999,507.922211 956.205750,506.932098 958.001709,506.092590 
	C962.442566,504.016724 965.470398,505.423126 967.810486,509.699188 
	C972.279053,517.864380 977.046753,525.865845 981.688843,533.936035 
	C985.643982,540.812073 991.549072,544.685364 999.460266,543.208435 
	C1010.535278,541.140747 1017.178650,547.238281 1020.591980,555.795532 
	C1025.974487,569.289429 1031.817627,583.263733 1033.353760,597.479065 
	C1035.957275,621.570801 1035.854004,646.008850 1035.861816,670.301636 
	C1035.864990,680.502014 1032.960205,690.673035 1031.901367,700.911682 
	C1030.620483,713.297729 1029.489014,725.726624 1029.039307,738.163879 
	C1028.553467,751.602661 1028.929321,765.072693 1028.929321,778.529053 
	C1028.199585,778.795654 1027.469727,779.062256 1026.739990,779.328857 
	C1025.490601,777.982727 1023.730652,776.844666 1023.082397,775.253601 
	C1020.583740,769.121399 1018.346191,762.876709 1016.193604,756.611389 
	C1014.384460,751.345520 1010.453308,749.679565 1005.724915,752.423096 
	C1005.437378,752.589905 1005.169556,752.790527 1004.892639,752.975647 
	C995.019043,759.575500 986.372620,758.415527 980.450928,747.838867 
	C974.244507,736.753784 969.497375,724.815247 964.598877,713.047241 
	C961.374878,705.302002 956.512817,702.649414 949.515564,707.023071 
	C928.692993,720.038330 906.022400,714.260925 892.096436,691.223511 
	C889.859558,687.523132 887.670166,683.794006 885.271118,679.761963 
z"/>
<path fill="#F4F4F4" opacity="1.000000" stroke="none" 
	d="
M444.352966,806.127686 
	C438.778748,807.096313 433.625092,807.999390 428.471405,808.902527 
	C428.364410,808.649048 428.257385,808.395630 428.150391,808.142151 
	C437.644348,800.369385 446.962463,792.362061 456.769592,785.006897 
	C458.925323,783.390076 463.221313,783.035461 465.799377,784.019043 
	C468.398407,785.010620 467.282715,791.571411 463.785919,794.455261 
	C458.033112,799.199646 453.305420,805.813843 444.352966,806.127686 
z"/>
<path fill="#E98100" opacity="1.000000" stroke="none" 
	d="
M623.673401,744.652344 
	C625.168091,743.580811 626.391235,742.740906 628.283325,741.441528 
	C630.288757,744.080017 632.199951,746.594482 634.920715,750.174194 
	C629.470703,749.227417 625.444885,748.528137 620.807068,747.722473 
	C621.931213,746.492676 622.666565,745.688354 623.673401,744.652344 
z"/>
<path fill="#FFFFFE" opacity="1.000000" stroke="none" 
	d="
M558.981445,392.041504 
	C566.253845,372.519867 572.340637,352.882263 580.877869,334.374969 
	C589.914001,314.786224 600.605408,295.860962 611.841431,277.418243 
	C621.085632,262.244781 634.640991,251.039154 650.963928,243.581192 
	C653.502686,242.421204 656.298279,241.626892 659.058655,241.182999 
	C670.058167,239.414124 677.859497,244.623276 679.821350,255.546356 
	C682.496033,270.438690 684.873291,285.391327 687.027710,300.368500 
	C690.298523,323.106873 689.292786,345.880768 687.012207,368.643066 
	C685.022583,388.501312 683.453674,408.408142 681.076721,428.218872 
	C679.442383,441.840729 674.931213,454.777740 668.770569,467.045624 
	C663.906494,476.731781 660.176270,478.290375 649.536804,476.131897 
	C632.936829,472.764130 616.145081,470.160919 599.765381,465.947693 
	C587.578979,462.813049 575.905945,457.733429 565.631409,449.968628 
	C562.360229,447.496490 558.570740,445.623962 554.830627,443.879578 
	C549.690613,441.482300 548.435303,439.354462 549.686707,433.722107 
	C552.745422,419.954834 555.810913,406.189056 558.981445,392.041504 
z"/>
<path fill="#FFFFFE" opacity="1.000000" stroke="none" 
	d="
M265.683777,282.040863 
	C266.461914,272.599854 267.076660,263.634094 268.056702,254.708481 
	C268.997101,246.144455 274.227997,242.349884 282.257050,245.128860 
	C286.798798,246.700836 291.373840,249.442368 294.776733,252.822189 
	C310.347504,268.287445 326.113251,283.632874 340.596924,300.088226 
	C349.642975,310.365784 357.430298,322.031891 364.201935,333.971313 
	C377.583008,357.564178 388.870331,382.237976 397.611481,407.972717 
	C399.362976,413.129181 400.274750,418.605560 401.203094,423.998230 
	C402.421509,431.075806 399.225433,436.613281 392.807587,438.741577 
	C375.590027,444.451355 360.527435,454.394104 344.359650,462.136017 
	C340.086121,464.182343 335.222015,464.997437 330.626221,466.368195 
	C322.523346,468.784943 316.419403,464.333130 312.842224,458.596100 
	C299.167816,436.665161 287.670135,413.645325 282.058289,388.101532 
	C278.138428,370.259125 273.822113,352.503693 269.923370,334.656891 
	C266.173859,317.493011 265.131470,300.068146 265.683777,282.040863 
z"/>
<path fill="#060300" opacity="1.000000" stroke="none" 
	d="
M332.953308,604.771301 
	C333.503937,601.235779 333.515228,597.923279 334.655426,595.060547 
	C335.517853,592.895264 337.630402,590.097168 339.537659,589.794739 
	C341.471313,589.488159 344.773773,591.358276 345.846680,593.216309 
	C350.082275,600.551575 353.351318,608.446167 357.606201,615.768738 
	C361.509857,622.486755 366.531586,628.271118 376.367126,628.021667 
	C376.367126,624.290710 375.947479,620.643555 376.497864,617.149231 
	C376.950409,614.276062 377.824524,610.381287 379.853333,609.150208 
	C381.883575,607.918152 386.217346,608.460999 388.422760,609.918518 
	C394.995087,614.262024 401.368622,619.216675 409.472229,619.419495 
	C416.516510,619.595703 423.695557,618.841003 430.622864,617.502869 
	C434.556854,616.742859 437.832764,615.526428 439.891998,619.966064 
	C441.423035,623.267090 439.351318,627.180054 434.655579,628.757690 
	C421.445801,633.195801 408.224548,633.290344 395.226990,627.727966 
	C393.119965,626.826294 391.101318,625.718018 389.187958,624.777161 
	C388.644562,625.283997 388.258759,625.469910 388.242645,625.683716 
	C387.137299,640.348938 377.593781,645.158264 363.161072,637.180969 
	C357.430725,634.013611 352.967346,628.364197 348.360535,623.439453 
	C346.272552,621.207336 345.240753,617.987244 343.491669,614.778381 
	C341.779907,617.694580 340.377533,620.386841 338.697815,622.893250 
	C331.137421,634.174561 319.668213,634.576172 310.665649,624.088623 
	C303.425995,615.654907 298.904358,605.711853 296.842773,595.117737 
	C293.542145,578.156067 293.615540,560.976685 298.734314,544.241821 
	C299.680328,541.148926 302.091949,538.172791 304.589783,536.033020 
	C305.749969,535.039185 309.381866,535.423645 310.716644,536.562439 
	C312.064484,537.712341 313.044800,541.097290 312.317383,542.596191 
	C305.041382,557.589355 306.141022,573.361389 307.829376,589.080261 
	C308.873413,598.800049 312.885193,607.661438 318.960999,615.372986 
	C323.685883,621.369812 326.742920,621.036682 330.132690,614.201050 
	C331.510559,611.422607 332.003540,608.205261 332.953308,604.771301 
z"/>
<path fill="#FF4A00" opacity="1.000000" stroke="none" 
	d="
M466.013550,739.018311 
	C462.955994,740.310730 459.991180,742.171814 456.807495,742.691162 
	C454.757446,743.025574 451.702148,741.983704 450.369873,740.451965 
	C449.258606,739.174255 449.252686,735.953491 450.049469,734.170837 
	C453.196045,727.130554 459.531403,723.533020 466.483734,721.494629 
	C472.143250,719.835327 475.957092,723.726685 475.849609,730.635254 
	C475.662903,731.197693 475.616669,731.290588 475.570435,731.383545 
	C475.714844,731.257263 475.859253,731.131042 476.003662,731.004883 
	C478.309998,730.182617 480.564606,729.132629 482.935364,728.594177 
	C486.095276,727.876404 489.395905,726.947388 492.545349,727.207458 
	C497.359680,727.605042 499.705017,732.750977 496.637177,736.417480 
	C490.556946,743.684143 482.461121,748.533203 473.433746,750.792480 
	C466.378906,752.558167 463.887390,748.298767 466.125977,739.348389 
	C466.315857,738.820190 466.369843,738.740723 466.423828,738.661255 
	C466.287079,738.780273 466.150299,738.899292 466.013550,739.018311 
z"/>
<path fill="#050300" opacity="1.000000" stroke="none" 
	d="
M409.801727,674.850830 
	C414.252655,668.939941 420.050415,669.167847 422.512573,675.684570 
	C426.984680,687.521240 426.233185,699.535645 420.453766,710.780029 
	C419.383514,712.862305 415.222931,714.495300 412.580139,714.372192 
	C408.262726,714.171143 404.641266,711.290283 403.932556,706.692261 
	C402.472412,697.218506 402.793823,687.859009 407.699249,679.187134 
	C408.428314,677.898193 409.006500,676.523865 409.801727,674.850830 
z"/>
<path fill="#060300" opacity="1.000000" stroke="none" 
	d="
M287.205811,656.270142 
	C288.138245,651.442749 288.623383,646.913208 290.182037,642.789429 
	C290.899689,640.890808 293.819519,638.501953 295.561554,638.637573 
	C297.901703,638.819763 300.939178,640.714783 302.157379,642.773804 
	C307.183563,651.268738 306.996399,660.511047 304.669342,669.825073 
	C304.307739,671.272400 304.252350,673.120972 303.320648,674.035217 
	C301.228729,676.087891 298.694244,679.031006 296.304047,679.064697 
	C293.865906,679.099060 289.805145,676.503052 289.230225,674.325806 
	C287.738586,668.676758 287.772461,662.625000 287.205811,656.270142 
z"/>
<path fill="#FE8D00" opacity="1.000000" stroke="none" 
	d="
M476.001831,731.002441 
	C475.859253,731.131042 475.714844,731.257263 475.570435,731.383545 
	C475.616669,731.290588 475.662903,731.197693 475.852386,731.050903 
	C475.995667,730.997070 476.000000,731.000000 476.001831,731.002441 
z"/>
<path fill="#FE8D00" opacity="1.000000" stroke="none" 
	d="
M466.006470,739.009155 
	C466.150299,738.899292 466.287079,738.780273 466.423828,738.661255 
	C466.369843,738.740723 466.315857,738.820190 466.121399,738.942566 
	C465.980957,738.985413 465.999390,739.000000 466.006470,739.009155 
z"/>
</svg>