<svg version="1.1" id="Layer_1" xmlns="http://www.w3.org/2000/svg" xmlns:xlink="http://www.w3.org/1999/xlink" x="0px" y="0px"
	 width="100%" viewBox="0 0 1668 2388" enable-background="new 0 0 1668 2388" xml:space="preserve">
<path fill="#000000" opacity="1.000000" stroke="none" 
	d="
M971.000000,2389.000000 
	C647.333313,2389.000000 324.166656,2389.000000 1.000000,2389.000000 
	C1.000000,1593.000000 1.000000,797.000000 1.000000,1.000000 
	C557.000000,1.000000 1113.000000,1.000000 1669.000000,1.000000 
	C1669.000000,797.000000 1669.000000,1593.000000 1669.000000,2389.000000 
	C1436.500000,2389.000000 1204.000000,2389.000000 971.000000,2389.000000 
M664.452454,1954.769531 
	C666.782104,1954.728760 669.115356,1954.757324 671.440857,1954.636719 
	C696.028748,1953.360229 720.602478,1951.503418 745.206177,1950.935669 
	C766.335266,1950.447998 787.497314,1951.505005 808.646301,1951.741455 
	C888.913452,1952.638916 969.231445,1949.454956 1049.443726,1954.770386 
	C1061.889404,1955.595093 1074.333374,1956.483398 1086.790649,1957.083862 
	C1101.406250,1957.788696 1116.033936,1958.260132 1130.659912,1958.720215 
	C1134.028809,1958.826172 1135.954102,1957.131226 1135.735474,1953.474609 
	C1135.358521,1947.167969 1135.067749,1940.856201 1134.720581,1934.547729 
	C1134.016968,1921.761963 1133.336670,1908.974976 1132.579590,1896.192383 
	C1131.321411,1874.945923 1129.231567,1853.714966 1128.892334,1832.455200 
	C1128.286133,1794.466675 1129.016724,1756.458008 1128.575195,1718.464966 
	C1128.403564,1703.691162 1126.164551,1688.952515 1125.588135,1674.169678 
	C1124.700073,1651.392456 1124.294434,1628.593262 1123.944092,1605.799438 
	C1123.632324,1585.518433 1125.136108,1565.086426 1123.138916,1544.989502 
	C1121.222046,1525.699951 1121.954712,1506.689087 1124.261230,1487.784790 
	C1127.367676,1462.327026 1130.539673,1437.001343 1129.900635,1411.248901 
	C1129.551270,1397.160767 1131.077637,1383.029663 1131.647583,1368.913452 
	C1131.835693,1364.256714 1131.677246,1359.586182 1131.677246,1354.921875 
	C1125.795898,1360.106567 1120.836548,1365.283325 1116.775024,1371.088379 
	C1109.241821,1381.855713 1102.222656,1392.983032 1095.008423,1403.972900 
	C1081.998291,1423.791992 1066.987671,1441.929321 1051.027100,1459.498413 
	C1025.397339,1487.711548 1000.833191,1516.895630 975.935364,1545.769653 
	C963.215881,1560.520508 950.741333,1575.482544 938.173096,1590.363403 
	C932.803162,1596.721191 927.754700,1603.378662 922.044250,1609.411743 
	C917.266113,1614.460083 912.461121,1614.905884 907.584290,1612.580566 
	C904.516235,1611.118042 901.186218,1610.090576 897.872192,1609.286377 
	C893.522522,1608.230957 889.091614,1607.462891 884.662048,1606.793701 
	C876.156250,1605.508545 867.634949,1603.422241 859.105652,1603.348877 
	C817.444092,1602.989990 775.776733,1603.338257 734.113770,1603.073608 
	C724.170410,1603.010376 714.248108,1601.114990 704.294617,1600.839111 
	C687.828308,1600.382690 671.343201,1600.652710 654.868347,1600.437988 
	C639.769470,1600.241089 624.275635,1601.867554 609.660950,1599.042480 
	C580.986755,1593.500000 552.116638,1590.732178 523.140503,1588.157715 
	C501.948792,1586.274658 480.811646,1583.783936 459.626190,1581.823120 
	C440.928925,1580.092285 422.222992,1578.074829 403.476105,1577.363647 
	C383.172943,1576.593628 362.818024,1577.189087 342.485657,1577.188965 
	C340.742340,1577.188843 338.999023,1577.188965 337.325745,1577.188965 
	C337.977142,1595.945923 338.756317,1613.890747 339.172058,1631.843994 
	C339.476746,1645.002808 338.883392,1658.190308 339.438416,1671.333496 
	C340.392700,1693.933350 341.961639,1716.506958 343.207001,1739.095093 
	C343.664948,1747.400635 343.576874,1755.750610 344.360504,1764.021118 
	C346.855011,1790.347656 350.175507,1816.605835 352.174988,1842.966431 
	C354.425262,1872.633301 355.580719,1902.382935 357.230469,1932.095581 
	C357.395996,1935.077637 357.548279,1938.071289 357.944397,1941.027710 
	C359.085175,1949.541138 359.255371,1949.453247 368.259125,1949.807007 
	C378.063324,1950.192139 387.872375,1950.732666 397.644348,1951.599854 
	C415.201355,1953.157715 432.704773,1956.049072 450.279938,1956.512085 
	C481.709442,1957.339844 513.178223,1957.044922 544.625671,1956.730469 
	C584.246582,1956.334229 623.862488,1955.447754 664.452454,1954.769531 
M824.568665,1347.053833 
	C826.647949,1345.136108 828.894531,1343.369263 830.780457,1341.277222 
	C848.154663,1322.003906 865.750122,1302.919556 882.726929,1283.300659 
	C905.521851,1256.958130 925.101990,1228.221191 943.621704,1198.772461 
	C946.307190,1194.502197 947.741455,1189.461060 949.989502,1184.892212 
	C950.978821,1182.881470 952.488525,1181.107178 953.885803,1179.322510 
	C955.390381,1177.400635 957.362854,1175.780762 958.575134,1173.704590 
	C968.211731,1157.200928 973.869873,1139.199463 979.514404,1121.012451 
	C990.079346,1086.972046 995.207886,1052.353760 994.849854,1016.791016 
	C994.794922,1011.336975 996.096252,1005.879578 996.285583,1000.407043 
	C996.352234,998.480225 995.483643,995.993896 994.150391,994.643005 
	C989.849976,990.285339 988.927795,984.734192 992.647278,979.790283 
	C994.423523,977.429504 996.585754,975.204407 998.986267,973.499329 
	C1004.408569,969.647766 1010.130615,966.221619 1015.654419,962.508850 
	C1030.764038,952.352844 1045.221313,941.403015 1056.273071,926.684814 
	C1067.369751,911.906616 1078.994141,897.444458 1088.996582,881.946228 
	C1100.431274,864.228760 1112.149170,846.302734 1120.432007,827.043091 
	C1130.436157,803.780640 1137.199097,779.098083 1144.910278,754.885376 
	C1149.671143,739.936768 1152.275024,724.544922 1151.801880,708.724609 
	C1151.040405,683.268799 1150.437744,657.808289 1149.752441,632.350220 
	C1149.735962,631.740112 1149.532104,631.135132 1149.301270,629.930847 
	C1141.940674,632.890808 1134.929810,635.792480 1127.858276,638.537720 
	C1110.259155,645.369812 1093.841309,654.362488 1078.466797,665.293457 
	C1051.953613,684.143982 1027.432983,705.358093 1003.150208,726.986755 
	C982.435852,745.437012 962.500488,764.543518 945.190735,786.130554 
	C932.293762,802.214478 920.671021,819.339355 908.823608,836.240906 
	C893.997009,857.392578 880.710876,879.437073 871.085510,903.553406 
	C870.107361,906.004150 867.373657,908.561584 864.878601,909.447693 
	C857.499084,912.068726 849.895874,913.831421 842.140808,910.050293 
	C840.319336,909.162231 837.907776,909.293152 835.766235,909.283569 
	C821.934814,909.221680 808.102356,909.331116 794.271667,909.211853 
	C788.461426,909.161804 782.639404,908.274597 776.849182,908.487488 
	C756.588196,909.232422 737.198853,916.594238 716.563782,915.753906 
	C704.992798,915.282654 696.492798,907.575256 698.242188,895.976379 
	C699.083069,890.401245 699.580811,884.733704 699.699646,879.096741 
	C700.423462,844.760071 699.728455,810.455383 693.767090,776.543701 
	C689.681824,753.304443 686.111450,729.791504 679.463135,707.240479 
	C673.481506,686.950989 664.427673,667.419800 655.273804,648.249023 
	C642.874512,622.281799 629.252197,596.890076 615.804993,571.436157 
	C611.053833,562.442871 605.275330,553.992432 599.965881,545.294128 
	C599.333069,545.294189 598.700317,545.294189 598.067505,545.294250 
	C589.366211,560.388794 580.377991,575.327942 572.082703,590.642395 
	C567.833618,598.486938 564.071167,606.768127 561.421448,615.267395 
	C556.881104,629.831116 553.438354,644.734863 549.437317,659.469421 
	C546.136047,671.626831 542.209290,683.636353 539.433472,695.909058 
	C535.733459,712.268311 532.825867,728.808777 529.684937,745.291748 
	C528.098633,753.616455 525.747192,761.952942 525.471008,770.341064 
	C524.493896,800.022156 525.977966,829.577393 532.807556,858.654053 
	C534.707397,866.742859 536.286072,874.907166 538.193420,882.994080 
	C542.234436,900.127686 545.380188,917.501892 553.042847,933.613098 
	C557.464050,942.908875 561.173584,952.541443 565.345276,961.959656 
	C565.882996,963.173523 567.096375,964.398865 568.302490,964.951355 
	C573.126099,967.160950 575.150513,970.854614 575.289368,976.038330 
	C575.440613,981.685425 575.666077,987.356323 576.345337,992.957886 
	C577.744690,1004.498474 579.062073,1016.073914 581.149719,1027.500366 
	C584.493164,1045.800659 587.645386,1064.196045 592.304810,1082.181763 
	C599.804749,1111.132324 607.973572,1139.903931 618.686890,1167.928589 
	C631.637329,1201.805176 644.562073,1235.685303 660.993164,1268.046997 
	C667.342102,1280.551514 672.515015,1293.922607 682.832214,1304.129150 
	C684.169739,1305.452393 684.697144,1307.613281 685.540344,1309.413940 
	C687.486450,1313.570190 689.203613,1317.847656 691.382935,1321.876221 
	C693.036072,1324.932007 695.213196,1327.712280 697.235840,1330.559082 
	C706.561096,1343.684326 715.913940,1356.789917 725.843445,1370.725952 
	C734.125977,1358.919556 745.514771,1361.145508 756.528809,1362.948120 
	C768.632324,1364.929077 776.643005,1371.855225 779.066650,1384.767700 
	C782.390686,1381.856934 785.184082,1379.273804 788.120056,1376.864258 
	C800.071228,1367.056030 812.066101,1357.300781 824.568665,1347.053833 
M185.665146,1562.747314 
	C205.425430,1561.820435 225.193985,1561.039185 244.943268,1559.918701 
	C259.546661,1559.090088 274.122528,1556.949707 288.714844,1556.908936 
	C332.354156,1556.787354 376.008148,1556.897461 419.630615,1557.968140 
	C440.204071,1558.473145 460.728302,1561.276978 481.256836,1563.228638 
	C499.132080,1564.928101 516.949646,1567.341309 534.850891,1568.634521 
	C560.092468,1570.458008 585.249023,1572.588135 609.943726,1578.469971 
	C622.901978,1581.556519 636.059143,1580.718140 649.213135,1580.490967 
	C668.520752,1580.157593 687.841370,1579.867920 707.144287,1580.222168 
	C719.590210,1580.450562 732.008972,1582.525757 744.449219,1582.627197 
	C784.609131,1582.954834 824.774841,1582.571655 864.934570,1582.907349 
	C872.812195,1582.973145 880.667175,1585.073242 888.543579,1586.154541 
	C895.584351,1587.121338 902.625488,1588.156006 909.700989,1588.746216 
	C911.302612,1588.879883 913.553162,1587.730347 914.651672,1586.443115 
	C937.881775,1559.222778 960.915588,1531.835083 984.147583,1504.616333 
	C999.390869,1486.757080 1014.580505,1468.835571 1030.351807,1451.447754 
	C1047.040771,1433.048096 1063.422363,1414.529907 1077.066650,1393.627197 
	C1087.958984,1376.940308 1099.996704,1361.000366 1111.561401,1344.754028 
	C1112.945312,1342.809692 1114.550049,1341.022461 1116.524658,1338.578003 
	C1114.589722,1338.453125 1113.475464,1338.333984 1112.359619,1338.316284 
	C1090.383545,1337.968628 1068.406738,1337.660034 1046.431641,1337.261475 
	C1043.619629,1337.210571 1040.818848,1336.671021 1038.007568,1336.416504 
	C1030.059692,1335.696777 1022.115662,1334.604614 1014.156799,1334.474487 
	C1010.102417,1334.408203 1004.875061,1334.820190 1002.181580,1337.243286 
	C996.102722,1342.711914 989.608154,1346.249146 981.619751,1347.572266 
	C967.564392,1349.900269 953.893677,1354.350952 939.279785,1353.373901 
	C924.210999,1352.366577 910.285828,1349.430664 899.666931,1337.520264 
	C898.648010,1336.377441 896.302673,1336.052490 894.550659,1335.991333 
	C887.081482,1335.730957 879.391174,1336.728394 872.209290,1335.224487 
	C867.913818,1334.324829 865.841309,1334.777100 862.993835,1337.611572 
	C850.501160,1350.047729 838.085999,1362.589355 825.054199,1374.445801 
	C817.077698,1381.702881 807.863525,1387.580566 799.527161,1394.467651 
	C793.338867,1399.579956 788.725098,1407.014038 780.961426,1406.452393 
	C777.781555,1414.606567 775.458191,1422.042358 772.018799,1428.920044 
	C769.225647,1434.505737 764.020874,1437.382568 757.517883,1438.235474 
	C745.237854,1439.846313 722.016174,1426.389404 718.138062,1413.069214 
	C715.910828,1405.419189 714.396729,1397.975952 714.711304,1390.063477 
	C714.766541,1388.674805 714.083679,1386.971436 713.176819,1385.885010 
	C710.751038,1382.979126 707.739685,1380.541504 705.457031,1377.540527 
	C696.828247,1366.196045 688.396240,1354.701904 679.420715,1342.631958 
	C676.773560,1345.513184 674.051758,1348.186646 671.662781,1351.130127 
	C664.619141,1359.809082 655.535645,1364.896118 644.612610,1366.746582 
	C641.178101,1367.328491 637.660278,1367.399048 634.198730,1367.844238 
	C622.268188,1369.379028 609.946167,1371.223755 598.556641,1367.233765 
	C576.706299,1359.578857 562.090088,1344.113525 554.288269,1321.772461 
	C554.582275,1321.701660 553.909668,1321.759521 553.327698,1322.019897 
	C547.461853,1324.644775 542.166382,1324.741089 537.472839,1319.400635 
	C536.534668,1318.333130 534.136536,1318.293213 532.394958,1318.229004 
	C521.258789,1317.817383 510.106232,1317.037598 498.980957,1317.301880 
	C471.659271,1317.950684 445.195221,1311.173950 418.257019,1308.616089 
	C400.730194,1306.951782 383.181396,1305.468018 365.617859,1304.261108 
	C355.343750,1303.555054 345.022369,1303.486206 334.719177,1303.323853 
	C333.550751,1303.305420 331.848297,1304.237671 331.261383,1305.238281 
	C323.523621,1318.430176 315.765167,1331.616089 308.374878,1345.003784 
	C302.123047,1356.329224 296.675049,1368.104126 290.282440,1379.345093 
	C278.054230,1400.847900 265.548767,1422.197021 252.888184,1443.448975 
	C243.204941,1459.703125 233.608383,1476.048828 223.031464,1491.718018 
	C214.692841,1504.071289 203.722458,1514.615356 197.956848,1528.767334 
	C196.210754,1533.053345 194.245544,1537.388184 191.581818,1541.132446 
	C186.529037,1548.234741 180.899063,1554.926514 175.432556,1561.885986 
	C178.229462,1562.145386 181.475250,1562.446411 185.665146,1562.747314 
M1150.266113,1856.421143 
	C1152.093140,1883.837280 1153.920166,1911.253418 1155.747192,1938.669678 
	C1156.258545,1938.923462 1156.769897,1939.177368 1157.281250,1939.431274 
	C1158.734741,1937.666504 1160.067749,1935.783325 1161.665161,1934.160400 
	C1165.863525,1929.895630 1170.041626,1925.594727 1174.474121,1921.580200 
	C1182.858521,1913.985840 1191.527710,1906.704712 1199.870972,1899.066772 
	C1209.554688,1890.201416 1218.574341,1880.560181 1228.665405,1872.201050 
	C1248.902466,1855.437012 1269.776489,1839.444702 1290.190552,1822.890747 
	C1308.025269,1808.428345 1326.051392,1794.142944 1340.945312,1776.437866 
	C1342.638062,1774.425415 1344.843750,1772.820923 1346.912109,1771.151978 
	C1355.711670,1764.051392 1364.158569,1756.423340 1373.479858,1750.084351 
	C1383.275635,1743.422729 1384.347168,1733.673706 1384.654785,1723.626953 
	C1384.969727,1713.339966 1383.548218,1702.977173 1384.181396,1692.727661 
	C1385.080566,1678.172974 1387.385132,1663.711426 1388.688599,1649.174072 
	C1390.601440,1627.840820 1391.945557,1606.455688 1393.937622,1585.130615 
	C1395.513672,1568.259399 1398.013428,1551.473022 1399.525391,1534.597290 
	C1400.993164,1518.213501 1401.795654,1501.767944 1402.752197,1485.341431 
	C1403.274170,1476.378174 1403.369629,1467.389404 1403.941650,1458.430176 
	C1404.177490,1454.735596 1405.159668,1451.088745 1405.993652,1446.328369 
	C1403.687866,1447.885986 1402.344116,1448.762573 1401.032471,1449.684814 
	C1391.935669,1456.080322 1382.991699,1462.708008 1373.703613,1468.812012 
	C1367.058105,1473.179321 1359.875610,1476.720581 1353.077881,1480.868042 
	C1347.125854,1484.499512 1341.467407,1488.612061 1335.519287,1492.250610 
	C1317.984375,1502.977295 1301.203979,1514.600464 1288.042114,1530.716064 
	C1278.781860,1542.054565 1266.110229,1540.797607 1258.872192,1528.170654 
	C1241.430420,1497.743042 1223.916382,1467.355225 1206.174316,1437.102295 
	C1196.928467,1421.336792 1186.878296,1406.041748 1177.682617,1390.248291 
	C1171.329102,1379.336182 1165.859497,1367.911255 1159.903320,1356.764526 
	C1157.871094,1352.961060 1155.559937,1349.306763 1153.376099,1345.584351 
	C1151.791504,1368.692993 1150.914185,1391.260986 1150.317383,1413.836304 
	C1149.982910,1426.493164 1150.829468,1439.217896 1149.851807,1451.811768 
	C1148.618530,1467.699951 1146.332520,1483.524536 1144.015137,1499.305298 
	C1141.351196,1517.445435 1143.666626,1535.405029 1144.629883,1553.482544 
	C1145.567993,1571.088379 1144.956665,1588.780151 1144.912231,1606.434082 
	C1144.868164,1623.906738 1144.026123,1641.405396 1144.723022,1658.845093 
	C1145.619019,1681.267578 1148.577026,1703.622925 1149.083252,1726.042480 
	C1150.057129,1769.171143 1149.931885,1812.324463 1150.266113,1856.421143 
M1298.017944,1492.462891 
	C1309.825928,1484.710571 1321.554810,1476.833862 1333.465698,1469.243164 
	C1344.096436,1462.468140 1354.989258,1456.105225 1365.647339,1449.371826 
	C1371.393921,1445.741211 1377.074707,1441.955078 1382.465332,1437.821899 
	C1397.116455,1426.588867 1410.973755,1414.196533 1426.302246,1404.002441 
	C1445.639526,1391.142456 1466.224731,1380.172729 1486.077759,1368.069702 
	C1501.683594,1358.556030 1516.983276,1348.540283 1532.444580,1338.788452 
	C1537.999390,1335.284912 1543.629028,1331.899780 1549.000732,1328.598145 
	C1532.989990,1309.547852 1514.566284,1293.920288 1499.700195,1274.758911 
	C1490.095581,1262.379150 1477.674194,1252.182739 1466.495972,1241.026978 
	C1452.364502,1226.923706 1438.241577,1212.811523 1424.009033,1198.810791 
	C1423.057617,1197.874878 1420.874878,1197.068604 1419.834717,1197.518799 
	C1409.628296,1201.936523 1399.422241,1206.388916 1389.447266,1211.301025 
	C1366.059204,1222.817993 1343.455078,1236.090454 1317.878906,1242.603516 
	C1316.766724,1242.886719 1315.704590,1243.437988 1314.678101,1243.976440 
	C1297.887329,1252.785034 1281.027344,1261.466187 1264.358032,1270.498779 
	C1256.626587,1274.688354 1249.559326,1280.161865 1241.681274,1284.009521 
	C1227.198364,1291.082764 1212.153320,1297.007690 1197.691895,1304.121460 
	C1185.399048,1310.168457 1173.597900,1317.214966 1161.807251,1323.693848 
	C1166.394409,1329.588257 1170.728882,1334.050049 1173.774170,1339.264526 
	C1186.420166,1360.918579 1198.680664,1382.797852 1211.075317,1404.598511 
	C1217.890503,1416.585693 1224.565552,1428.654541 1231.528076,1440.555176 
	C1242.099121,1458.623535 1252.877930,1476.570190 1263.541016,1494.584839 
	C1267.235840,1500.826660 1270.848999,1507.117065 1274.486938,1513.363892 
	C1282.367920,1506.346802 1289.914307,1499.627563 1298.017944,1492.462891 
M1151.543823,1195.776611 
	C1154.393311,1200.319092 1157.843384,1204.608276 1159.901123,1209.484985 
	C1161.531128,1213.347534 1161.575195,1217.915527 1162.110474,1222.196899 
	C1163.673462,1234.699951 1171.318604,1239.868408 1183.120483,1235.545532 
	C1189.908325,1233.059326 1196.464355,1229.732910 1202.748413,1226.128540 
	C1211.886841,1220.887085 1219.563965,1223.792236 1222.179077,1233.891479 
	C1222.923218,1236.764771 1223.955933,1239.634399 1225.331421,1242.256470 
	C1227.311157,1246.031250 1234.350708,1248.061890 1236.190063,1245.478882 
	C1245.545288,1232.341919 1255.631592,1219.615112 1263.775757,1205.754150 
	C1273.773560,1188.738037 1282.329102,1170.852539 1291.021118,1153.104248 
	C1293.729492,1147.573853 1295.636353,1141.377075 1296.481812,1135.287109 
	C1297.286987,1129.487915 1294.259766,1127.214600 1288.444824,1128.746582 
	C1282.875244,1130.213867 1277.610596,1132.829834 1272.199219,1134.907837 
	C1266.129883,1137.238770 1260.415405,1135.646973 1257.755005,1130.925171 
	C1254.964600,1125.972412 1256.566772,1120.821655 1261.733276,1116.467651 
	C1267.314209,1111.764404 1273.182861,1107.226440 1277.941162,1101.759155 
	C1288.325195,1089.828003 1297.288696,1077.211548 1294.851807,1059.778564 
	C1293.712646,1051.629395 1290.088379,1046.881592 1281.788940,1047.543335 
	C1277.040527,1047.921997 1272.362305,1050.138306 1267.837891,1051.982056 
	C1265.431030,1052.963013 1263.515259,1055.082642 1261.209595,1056.391968 
	C1255.388916,1059.697632 1247.065552,1058.867432 1243.029663,1054.749512 
	C1239.051147,1050.690186 1238.761719,1044.583496 1242.266113,1038.062378 
	C1242.816162,1037.039062 1243.416870,1036.034912 1244.081177,1035.082642 
	C1257.349731,1016.064697 1263.603638,994.370422 1266.748291,971.871826 
	C1268.203125,961.463684 1266.824341,950.657959 1266.701904,940.032898 
	C1266.687744,938.808899 1266.491699,937.587036 1266.389038,936.463806 
	C1238.842773,944.676697 1216.485718,961.062378 1194.588379,978.179016 
	C1190.811401,981.131348 1187.180542,984.460327 1184.175171,988.175842 
	C1173.493896,1001.380737 1162.703857,1014.533752 1152.782593,1028.302612 
	C1147.503052,1035.629639 1143.734741,1044.086426 1139.638550,1052.211792 
	C1136.580200,1058.278687 1134.226196,1064.696289 1131.319824,1070.844971 
	C1122.954468,1088.542847 1113.623779,1105.842529 1106.311523,1123.960327 
	C1100.997314,1137.128174 1097.656006,1151.216064 1094.749878,1165.167603 
	C1093.681763,1170.295410 1096.311890,1176.225220 1097.413940,1181.757446 
	C1097.827271,1183.831787 1098.476318,1185.920532 1099.395508,1187.819946 
	C1101.172974,1191.493042 1102.672974,1195.579346 1105.434082,1198.353638 
	C1106.471069,1199.395508 1110.733276,1197.390625 1113.455688,1196.550049 
	C1116.785400,1195.522095 1119.968384,1193.938477 1123.344849,1193.157593 
	C1132.736084,1190.985352 1142.097656,1190.323120 1151.543823,1195.776611 
M559.272522,1208.821899 
	C555.073059,1210.405151 550.768372,1211.757324 546.692871,1213.612915 
	C530.953369,1220.778931 515.380066,1228.315552 499.570038,1235.319580 
	C479.818359,1244.069824 459.966980,1252.605591 440.019196,1260.898804 
	C426.843048,1266.376465 413.451630,1271.343750 400.096375,1276.380005 
	C393.989777,1278.682861 387.738220,1280.601318 381.552429,1282.694092 
	C381.609375,1283.111450 381.666351,1283.528809 381.723297,1283.946045 
	C390.702576,1284.930542 399.683472,1285.900146 408.660675,1286.903076 
	C419.534760,1288.118042 430.555054,1288.612305 441.247498,1290.744995 
	C464.959686,1295.475098 488.959961,1296.732788 512.976807,1297.762329 
	C526.940552,1298.360840 540.952087,1297.768799 554.938782,1297.957520 
	C558.201355,1298.001343 559.713196,1296.875366 561.507507,1294.120483 
	C574.212952,1274.613647 590.483215,1260.753296 615.560059,1261.883179 
	C619.195251,1262.046997 622.814331,1262.554810 626.449158,1262.745605 
	C629.145935,1262.887329 631.856140,1262.773438 634.809143,1262.773438 
	C626.176025,1242.042358 617.902954,1222.102173 609.523010,1202.206909 
	C608.918762,1200.772217 607.621582,1198.662476 606.501404,1198.566650 
	C598.521545,1197.885254 590.561340,1195.294067 582.524719,1199.171509 
	C575.213318,1202.698975 567.519531,1205.433838 559.272522,1208.821899 
M305.974274,952.403503 
	C306.770355,951.800232 307.551239,951.175598 308.364899,950.597046 
	C317.506439,944.097656 324.901489,945.941162 329.842468,955.974487 
	C331.530304,959.401855 333.028870,962.926392 334.812012,966.301880 
	C338.099548,972.525208 343.863098,974.658691 350.225464,971.314453 
	C355.786377,968.391541 360.899536,964.607117 366.164307,961.133301 
	C370.479858,958.285950 370.841248,955.110046 367.573425,950.877319 
	C362.289459,944.033203 357.293488,936.949585 352.479706,929.763550 
	C345.086060,918.726318 346.358276,912.197693 356.417358,903.486389 
	C362.185608,898.491028 367.579315,893.017822 372.724121,887.378906 
	C374.066711,885.907410 375.013153,882.238403 374.132782,880.908508 
	C371.128174,876.369812 367.249420,872.405457 363.661865,868.258667 
	C361.401794,865.646118 359.176208,865.356201 356.534668,868.034363 
	C352.917938,871.701355 349.127319,875.214783 345.225922,878.579163 
	C337.781525,884.999023 328.043457,882.858398 324.049438,874.217834 
	C320.156372,865.795654 316.104370,857.444702 311.984497,849.130737 
	C310.210297,845.550415 308.790039,840.170776 305.946411,839.159668 
	C302.471771,837.924377 297.652863,840.344421 293.452423,841.340393 
	C291.852966,841.719604 290.379791,842.602051 288.808167,843.134521 
	C286.048584,844.069519 284.954315,845.835693 285.248444,848.799255 
	C286.033508,856.709290 286.777802,864.628296 287.275391,872.560303 
	C287.666992,878.803040 284.254486,882.786133 278.997650,884.605286 
	C271.206055,887.301819 263.809296,889.072144 256.981506,882.568665 
	C256.539490,882.147644 255.758972,882.081909 255.135727,881.851440 
	C243.329361,877.485474 243.500687,877.636719 235.111618,887.141357 
	C230.442978,892.430725 227.134781,898.093262 226.299728,905.165710 
	C225.825089,909.185547 227.193878,911.942993 230.365128,914.591980 
	C235.884354,919.202271 242.166885,921.734070 248.913422,923.856567 
	C259.359985,927.143188 262.478790,934.581055 258.094330,944.485962 
	C255.069275,951.319946 252.031723,958.155457 248.731369,964.858032 
	C246.798767,968.782898 248.260162,971.240662 251.038132,973.995544 
	C256.393890,979.306824 262.973755,981.571777 270.129028,982.883484 
	C279.511200,984.603577 283.259094,982.874146 288.707947,975.132141 
	C294.046112,967.547424 299.831573,960.277527 305.974274,952.403503 
M1216.630493,1268.188721 
	C1217.531128,1267.022949 1218.431763,1265.857178 1218.768433,1265.421387 
	C1213.964478,1260.213745 1209.411987,1255.278809 1204.489136,1249.942261 
	C1203.222778,1250.455688 1201.260254,1251.324341 1199.247559,1252.054810 
	C1190.955322,1255.064453 1182.704102,1257.720459 1173.577271,1257.304565 
	C1160.549683,1256.710938 1149.499512,1249.823242 1145.080688,1237.581665 
	C1142.962402,1231.713257 1141.935791,1225.392944 1140.939575,1219.192871 
	C1139.856567,1212.453857 1138.564575,1211.034546 1131.867798,1212.460938 
	C1127.669678,1213.355103 1123.496460,1214.740112 1119.575928,1216.494751 
	C1106.038940,1222.552734 1098.686646,1221.410278 1088.171753,1211.198242 
	C1088.019531,1211.050415 1087.598389,1211.179810 1087.273682,1211.179810 
	C1086.948364,1213.176392 1086.459229,1215.135132 1086.332397,1217.117065 
	C1084.941895,1238.835327 1083.615967,1260.557617 1082.251099,1282.277588 
	C1082.001465,1286.251221 1081.040527,1290.288818 1081.483154,1294.174316 
	C1082.364380,1301.909302 1083.992920,1309.559326 1085.402954,1317.769531 
	C1087.579956,1317.769531 1089.717163,1317.751953 1091.854126,1317.772705 
	C1101.347778,1317.865112 1110.914307,1317.283813 1120.311768,1318.285767 
	C1127.755615,1319.079590 1134.033203,1318.364746 1140.341431,1313.998291 
	C1161.719971,1299.200806 1184.008301,1285.931274 1208.276001,1276.330566 
	C1212.112427,1274.812744 1214.815918,1272.632568 1216.630493,1268.188721 
M1306.242554,543.744019 
	C1299.579468,548.436035 1292.807739,552.982849 1286.286743,557.864685 
	C1280.780396,561.986938 1280.176025,564.160156 1283.804321,570.133911 
	C1288.278931,577.500732 1292.740723,585.088074 1298.494507,591.409058 
	C1305.109863,598.676575 1308.842529,606.431580 1308.970581,616.210815 
	C1309.042236,621.680542 1304.897217,627.544312 1299.447754,626.755554 
	C1292.430542,625.739929 1287.221313,628.932068 1281.869141,632.020813 
	C1280.150757,633.012512 1278.345703,635.762878 1278.422241,637.633240 
	C1278.800293,646.864136 1281.216064,655.550659 1286.170410,663.578369 
	C1289.015259,668.187805 1292.604736,669.440430 1297.035278,667.274536 
	C1303.550903,664.089294 1310.279053,660.963013 1315.996094,656.604187 
	C1325.378052,649.451477 1333.488770,650.924377 1338.380371,661.755066 
	C1341.750732,669.217468 1344.470093,676.817749 1344.363892,685.218506 
	C1344.349121,686.391357 1346.147583,688.512329 1347.249023,688.611450 
	C1351.634521,689.006104 1356.076416,688.774048 1360.808228,688.774048 
	C1360.808228,687.141235 1360.807129,685.834290 1360.808350,684.527344 
	C1360.818359,674.033630 1360.685669,663.537354 1360.879517,653.046997 
	C1361.073364,642.561096 1366.052002,637.400330 1376.330200,637.963318 
	C1384.239502,638.396545 1392.402832,639.086975 1399.882568,641.460693 
	C1415.851196,646.528625 1424.402832,636.202026 1429.917114,624.663757 
	C1432.618652,619.010803 1427.732422,612.286621 1421.603760,612.264832 
	C1414.441406,612.239319 1407.270508,612.448730 1400.120728,612.144348 
	C1396.874878,612.006226 1393.440063,611.397888 1390.494019,610.092773 
	C1383.234131,606.876709 1381.781006,598.246826 1387.543701,592.822266 
	C1389.782227,590.715088 1392.707031,589.263977 1395.474487,587.809387 
	C1399.135498,585.885010 1402.929810,584.208435 1406.702515,582.504333 
	C1410.016113,581.007629 1410.681274,578.826416 1409.687622,575.282166 
	C1407.479004,567.404053 1402.146484,561.697449 1397.017578,555.821960 
	C1393.545288,551.844299 1390.972656,551.638184 1386.710815,555.057739 
	C1379.051514,561.203369 1371.488403,567.469543 1363.922852,573.730896 
	C1359.694214,577.230530 1355.680054,581.004395 1351.314819,584.319580 
	C1347.040161,587.565918 1342.128052,588.257263 1337.209473,585.833008 
	C1332.311523,583.418884 1330.664307,579.049072 1330.794678,573.812073 
	C1330.856812,571.315247 1331.001831,568.794006 1330.747925,566.320923 
	C1330.055908,559.580017 1329.766479,552.848206 1325.011597,547.114380 
	C1318.123657,538.808167 1316.269287,538.176636 1306.242554,543.744019 
M991.489075,1232.940186 
	C999.390320,1237.144653 1007.439026,1241.096680 1015.161438,1245.607300 
	C1030.254639,1254.422852 1045.051758,1263.698364 1057.201782,1276.552490 
	C1058.231934,1277.642212 1059.651855,1278.363647 1061.836670,1279.937988 
	C1063.628906,1251.675049 1065.342163,1224.658203 1067.088257,1197.122559 
	C1064.446655,1197.122559 1062.644531,1197.122559 1060.842407,1197.122559 
	C1044.681519,1197.122314 1028.519287,1196.994019 1012.360168,1197.161377 
	C998.730774,1197.302490 985.103882,1197.750488 971.479431,1198.175659 
	C970.116089,1198.218140 968.145752,1198.631348 967.529419,1199.573730 
	C963.551575,1205.655396 959.871948,1211.932129 955.822571,1218.591919 
	C967.691345,1223.409058 979.208374,1228.083496 991.489075,1232.940186 
M1259.997559,779.541565 
	C1260.005859,784.324890 1259.553101,789.162903 1260.112793,793.880798 
	C1261.535645,805.873413 1257.482056,813.025208 1247.023926,818.089966 
	C1238.722168,822.110474 1230.732056,826.846130 1222.892822,831.728577 
	C1216.152100,835.926819 1218.120117,848.538879 1224.696777,851.018005 
	C1229.775024,852.932251 1234.354248,852.040527 1238.677002,849.647156 
	C1246.947510,845.067993 1255.125732,840.298584 1263.124512,835.262085 
	C1267.509521,832.501038 1272.359009,829.734985 1275.426270,825.758118 
	C1286.297607,811.662354 1284.602173,795.098328 1283.349976,778.744507 
	C1282.817993,771.795959 1278.689819,765.535828 1280.799683,757.936462 
	C1282.895874,750.386169 1291.074341,741.714050 1298.843262,740.999146 
	C1304.293457,740.497620 1308.980347,735.078613 1308.997803,729.258423 
	C1309.011719,724.605957 1303.977539,718.441956 1299.390015,718.059937 
	C1291.447876,717.398499 1283.490479,718.038635 1277.247925,723.474548 
	C1273.080566,727.103333 1269.638672,731.690613 1266.381226,736.215515 
	C1257.018555,749.221069 1253.444702,763.240173 1259.997559,779.541565 
M652.374329,1296.155884 
	C649.819092,1293.429810 646.318848,1291.102417 644.956421,1287.873047 
	C643.383240,1284.144287 641.110779,1283.431030 637.834229,1283.279419 
	C631.031921,1282.964600 624.223145,1282.731201 617.431763,1282.253906 
	C610.083008,1281.737183 603.413147,1283.209717 596.891968,1286.900391 
	C589.818542,1290.903442 584.525818,1296.515503 580.176941,1303.047241 
	C572.905884,1313.968018 576.018066,1328.043823 586.956848,1333.990723 
	C586.956848,1330.989136 586.678284,1328.135864 587.017578,1325.358032 
	C587.635254,1320.299805 591.501953,1316.548950 596.252625,1316.363403 
	C601.073303,1316.174927 605.492188,1318.292969 606.124878,1323.020020 
	C607.192505,1330.995850 610.419128,1339.166748 605.867249,1347.969727 
	C612.734741,1347.969727 619.220581,1347.969727 626.069153,1347.969727 
	C625.635803,1340.412842 625.020142,1333.486328 624.900208,1326.551147 
	C624.771362,1319.103149 628.998596,1314.217651 635.019470,1314.203491 
	C640.957825,1314.189575 644.854004,1319.046021 645.260925,1326.518555 
	C645.583435,1332.440918 646.250732,1338.344482 646.833008,1345.038574 
	C649.128906,1343.440552 650.922058,1342.518677 652.296326,1341.170044 
	C655.500977,1338.025391 658.447327,1334.619019 661.603821,1331.422974 
	C665.365967,1327.613770 666.357971,1320.897827 663.763794,1316.323364 
	C660.073975,1309.816772 656.434082,1303.281860 652.374329,1296.155884 
M966.049194,1245.588745 
	C958.747070,1242.607300 951.445007,1239.625977 944.072876,1236.616089 
	C936.667725,1246.874390 929.757751,1256.446655 922.113098,1267.036865 
	C942.738770,1263.386597 961.416077,1263.748047 979.691040,1271.887085 
	C992.994202,1277.811890 1003.502014,1285.730225 1007.525269,1300.354126 
	C1008.703186,1304.635620 1009.754089,1308.951904 1010.841858,1313.169434 
	C1027.048096,1314.529297 1043.305542,1315.893555 1059.812378,1317.278687 
	C1060.349243,1308.897217 1055.430908,1303.614014 1051.428833,1299.358398 
	C1034.084961,1280.915283 1013.052063,1267.095581 990.822021,1255.258301 
	C983.275269,1251.239868 974.788513,1248.986572 966.049194,1245.588745 
M362.025177,1020.117371 
	C363.862549,1026.307861 367.691162,1029.258789 374.418427,1030.217285 
	C384.453461,1031.647095 392.576294,1038.446411 393.328918,1049.820312 
	C393.532928,1052.903320 393.566833,1056.015991 394.040497,1059.058838 
	C395.308014,1067.200928 395.271301,1075.968018 398.473938,1083.297974 
	C404.871216,1097.939331 416.431915,1107.374268 432.926727,1109.356323 
	C439.436890,1110.138550 445.339478,1104.875732 445.932709,1098.210693 
	C446.381531,1093.168457 441.624054,1086.251587 434.861420,1085.955566 
	C428.879761,1085.693970 421.009186,1079.052124 420.075500,1073.178589 
	C418.776672,1065.008423 418.115845,1056.738892 416.964874,1048.542358 
	C415.960815,1041.391968 414.991699,1034.249390 410.622437,1028.038208 
	C403.319092,1017.656006 393.608582,1010.261597 381.460938,1007.428955 
	C369.736572,1004.695007 362.516754,1008.139832 362.025177,1020.117371 
M985.007202,1324.603027 
	C992.106262,1317.326782 989.765564,1301.497559 980.169800,1295.582397 
	C968.040771,1288.105591 954.843140,1284.060913 940.328735,1285.347412 
	C930.728516,1286.198486 921.518127,1287.801758 914.478638,1295.307373 
	C913.505005,1296.345459 911.999268,1297.282349 910.627930,1297.477173 
	C905.943726,1298.142334 905.518127,1301.628296 905.261902,1305.140625 
	C904.666687,1313.300903 913.578369,1325.293091 923.635742,1329.284912 
	C923.503235,1326.545654 923.464111,1324.142090 923.256775,1321.753296 
	C922.659424,1314.870483 928.002747,1309.335693 934.403381,1310.273682 
	C939.725220,1311.053711 943.735596,1315.485718 944.079529,1321.344971 
	C944.298889,1325.080933 944.120667,1328.840332 944.120667,1332.452393 
	C947.364136,1332.452393 949.973572,1332.452393 953.115723,1332.452393 
	C953.386719,1328.213379 953.571655,1324.256714 953.907715,1320.312866 
	C954.416443,1314.343872 958.839966,1310.078003 964.240601,1310.220459 
	C969.490356,1310.359131 973.621582,1314.505737 974.117004,1320.234985 
	C974.326233,1322.655151 974.368225,1325.089966 974.518433,1328.179321 
	C978.177185,1327.016479 981.288452,1326.027710 985.007202,1324.603027 
M1307.268921,1224.665039 
	C1320.106323,1219.734131 1332.961060,1214.847168 1345.770264,1209.844116 
	C1349.380127,1208.434326 1352.857178,1206.684326 1356.395142,1205.090332 
	C1354.510498,1204.280396 1352.959351,1204.502808 1351.411621,1204.746704 
	C1344.377930,1205.855347 1337.378662,1207.549927 1330.304932,1207.957397 
	C1316.880005,1208.730591 1303.405029,1208.609497 1289.971069,1209.271240 
	C1287.818726,1209.377319 1285.093628,1211.134644 1283.794067,1212.956665 
	C1278.401123,1220.517944 1273.483765,1228.416870 1268.329590,1236.150513 
	C1265.643677,1240.180786 1262.828857,1244.125244 1260.072266,1248.108521 
	C1260.379639,1248.460571 1260.687134,1248.812622 1260.994629,1249.164673 
	C1276.181396,1241.082764 1291.368164,1233.000854 1307.268921,1224.665039 
z"/>
<path fill="#FE7B0D" opacity="1.000000" stroke="none" 
	d="
M663.966553,1954.771240 
	C623.862488,1955.447754 584.246582,1956.334229 544.625671,1956.730469 
	C513.178223,1957.044922 481.709442,1957.339844 450.279938,1956.512085 
	C432.704773,1956.049072 415.201355,1953.157715 397.644348,1951.599854 
	C387.872375,1950.732666 378.063324,1950.192139 368.259125,1949.807007 
	C359.255371,1949.453247 359.085175,1949.541138 357.944397,1941.027710 
	C357.548279,1938.071289 357.395996,1935.077637 357.230469,1932.095581 
	C355.580719,1902.382935 354.425262,1872.633301 352.174988,1842.966431 
	C350.175507,1816.605835 346.855011,1790.347656 344.360504,1764.021118 
	C343.576874,1755.750610 343.664948,1747.400635 343.207001,1739.095093 
	C341.961639,1716.506958 340.392700,1693.933350 339.438416,1671.333496 
	C338.883392,1658.190308 339.476746,1645.002808 339.172058,1631.843994 
	C338.756317,1613.890747 337.977142,1595.945923 337.325745,1577.188965 
	C338.999023,1577.188965 340.742340,1577.188843 342.485657,1577.188965 
	C362.818024,1577.189087 383.172943,1576.593628 403.476105,1577.363647 
	C422.222992,1578.074829 440.928925,1580.092285 459.626190,1581.823120 
	C480.811646,1583.783936 501.948792,1586.274658 523.140503,1588.157715 
	C552.116638,1590.732178 580.986755,1593.500000 609.660950,1599.042480 
	C624.275635,1601.867554 639.769470,1600.241089 654.868347,1600.437988 
	C671.343201,1600.652710 687.828308,1600.382690 704.294617,1600.839111 
	C714.248108,1601.114990 724.170410,1603.010376 734.113770,1603.073608 
	C775.776733,1603.338257 817.444092,1602.989990 859.105652,1603.348877 
	C867.634949,1603.422241 876.156250,1605.508545 884.662048,1606.793701 
	C889.091614,1607.462891 893.522522,1608.230957 897.872192,1609.286377 
	C901.186218,1610.090576 904.516235,1611.118042 907.584290,1612.580566 
	C912.461121,1614.905884 917.266113,1614.460083 922.044250,1609.411743 
	C927.754700,1603.378662 932.803162,1596.721191 938.173096,1590.363403 
	C950.741333,1575.482544 963.215881,1560.520508 975.935364,1545.769653 
	C1000.833191,1516.895630 1025.397339,1487.711548 1051.027100,1459.498413 
	C1066.987671,1441.929321 1081.998291,1423.791992 1095.008423,1403.972900 
	C1102.222656,1392.983032 1109.241821,1381.855713 1116.775024,1371.088379 
	C1120.836548,1365.283325 1125.795898,1360.106567 1131.677246,1354.921875 
	C1131.677246,1359.586182 1131.835693,1364.256714 1131.647583,1368.913452 
	C1131.077637,1383.029663 1129.551270,1397.160767 1129.900635,1411.248901 
	C1130.539673,1437.001343 1127.367676,1462.327026 1124.261230,1487.784790 
	C1121.954712,1506.689087 1121.222046,1525.699951 1123.138916,1544.989502 
	C1125.136108,1565.086426 1123.632324,1585.518433 1123.944092,1605.799438 
	C1124.294434,1628.593262 1124.700073,1651.392456 1125.588135,1674.169678 
	C1126.164551,1688.952515 1128.403564,1703.691162 1128.575195,1718.464966 
	C1129.016724,1756.458008 1128.286133,1794.466675 1128.892334,1832.455200 
	C1129.231567,1853.714966 1131.321411,1874.945923 1132.579590,1896.192383 
	C1133.336670,1908.974976 1134.016968,1921.761963 1134.720581,1934.547729 
	C1135.067749,1940.856201 1135.358521,1947.167969 1135.735474,1953.474609 
	C1135.954102,1957.131226 1134.028809,1958.826172 1130.659912,1958.720215 
	C1116.033936,1958.260132 1101.406250,1957.788696 1086.790649,1957.083862 
	C1074.333374,1956.483398 1061.889404,1955.595093 1049.443726,1954.770386 
	C969.231445,1949.454956 888.913452,1952.638916 808.646301,1951.741455 
	C787.497314,1951.505005 766.335266,1950.447998 745.206177,1950.935669 
	C720.602478,1951.503418 696.028748,1953.360229 671.440857,1954.636719 
	C669.115356,1954.757324 666.782104,1954.728760 663.966553,1954.771240 
M724.904968,1730.750244 
	C719.686340,1722.503418 712.236206,1718.322266 702.546448,1720.082397 
	C694.949097,1721.462280 688.748474,1726.056396 686.546265,1733.567261 
	C684.576355,1740.285645 683.470886,1747.544800 683.621399,1754.530029 
	C683.843384,1764.828369 690.072266,1772.133057 698.734375,1774.529297 
	C707.168274,1776.862549 714.297058,1774.395386 720.344482,1765.101196 
	C726.996521,1754.877563 731.248230,1743.732788 724.904968,1730.750244 
M504.557709,1760.824463 
	C513.117859,1769.569580 523.467468,1769.957397 531.528076,1760.937866 
	C541.790039,1749.454956 542.823914,1735.210083 540.094910,1721.058960 
	C538.316895,1711.838745 525.230042,1707.014160 517.393188,1711.293457 
	C502.483307,1719.434937 495.430359,1745.431641 504.557709,1760.824463 
M883.630310,1739.097656 
	C879.931641,1733.887939 876.289490,1728.772705 868.816650,1728.789673 
	C859.570251,1728.810669 849.318604,1737.383179 847.144714,1747.708130 
	C846.228394,1752.060181 845.792725,1756.588013 845.770386,1761.039185 
	C845.706482,1773.776001 852.883545,1780.839722 865.789917,1781.165405 
	C874.024170,1781.373047 878.806152,1778.646362 881.715515,1771.100342 
	C883.613708,1766.177002 885.421265,1760.961792 885.782227,1755.773926 
	C886.149353,1750.498901 884.692383,1745.097168 883.630310,1739.097656 
z"/>
<path fill="#FE8D00" opacity="1.000000" stroke="none" 
	d="
M824.306763,1347.290039 
	C812.066101,1357.300781 800.071228,1367.056030 788.120056,1376.864258 
	C785.184082,1379.273804 782.390686,1381.856934 779.066650,1384.767700 
	C776.643005,1371.855225 768.632324,1364.929077 756.528809,1362.948120 
	C745.514771,1361.145508 734.125977,1358.919556 725.843445,1370.725952 
	C715.913940,1356.789917 706.561096,1343.684326 697.235840,1330.559082 
	C695.213196,1327.712280 693.036072,1324.932007 691.382935,1321.876221 
	C689.203613,1317.847656 687.486450,1313.570190 685.540344,1309.413940 
	C684.697144,1307.613281 684.169739,1305.452393 682.832214,1304.129150 
	C672.515015,1293.922607 667.342102,1280.551514 660.993164,1268.046997 
	C644.562073,1235.685303 631.637329,1201.805176 618.686890,1167.928589 
	C607.973572,1139.903931 599.804749,1111.132324 592.304810,1082.181763 
	C587.645386,1064.196045 584.493164,1045.800659 581.149719,1027.500366 
	C579.062073,1016.073914 577.744690,1004.498474 576.345337,992.957886 
	C575.666077,987.356323 575.440613,981.685425 575.289368,976.038330 
	C575.150513,970.854614 573.126099,967.160950 568.302490,964.951355 
	C567.096375,964.398865 565.882996,963.173523 565.345276,961.959656 
	C561.173584,952.541443 557.464050,942.908875 553.042847,933.613098 
	C545.380188,917.501892 542.234436,900.127686 538.193420,882.994080 
	C536.286072,874.907166 534.707397,866.742859 532.807556,858.654053 
	C525.977966,829.577393 524.493896,800.022156 525.471008,770.341064 
	C525.747192,761.952942 528.098633,753.616455 529.684937,745.291748 
	C532.825867,728.808777 535.733459,712.268311 539.433472,695.909058 
	C542.209290,683.636353 546.136047,671.626831 549.437317,659.469421 
	C553.438354,644.734863 556.881104,629.831116 561.421448,615.267395 
	C564.071167,606.768127 567.833618,598.486938 572.082703,590.642395 
	C580.377991,575.327942 589.366211,560.388794 598.067505,545.294250 
	C598.700317,545.294189 599.333069,545.294189 599.965881,545.294128 
	C605.275330,553.992432 611.053833,562.442871 615.804993,571.436157 
	C629.252197,596.890076 642.874512,622.281799 655.273804,648.249023 
	C664.427673,667.419800 673.481506,686.950989 679.463135,707.240479 
	C686.111450,729.791504 689.681824,753.304443 693.767090,776.543701 
	C699.728455,810.455383 700.423462,844.760071 699.699646,879.096741 
	C699.580811,884.733704 699.083069,890.401245 698.242188,895.976379 
	C696.492798,907.575256 704.992798,915.282654 716.563782,915.753906 
	C737.198853,916.594238 756.588196,909.232422 776.849182,908.487488 
	C782.639404,908.274597 788.461426,909.161804 794.271667,909.211853 
	C808.102356,909.331116 821.934814,909.221680 835.766235,909.283569 
	C837.907776,909.293152 840.319336,909.162231 842.140808,910.050293 
	C849.895874,913.831421 857.499084,912.068726 864.878601,909.447693 
	C867.373657,908.561584 870.107361,906.004150 871.085510,903.553406 
	C880.710876,879.437073 893.997009,857.392578 908.823608,836.240906 
	C920.671021,819.339355 932.293762,802.214478 945.190735,786.130554 
	C962.500488,764.543518 982.435852,745.437012 1003.150208,726.986755 
	C1027.432983,705.358093 1051.953613,684.143982 1078.466797,665.293457 
	C1093.841309,654.362488 1110.259155,645.369812 1127.858276,638.537720 
	C1134.929810,635.792480 1141.940674,632.890808 1149.301270,629.930847 
	C1149.532104,631.135132 1149.735962,631.740112 1149.752441,632.350220 
	C1150.437744,657.808289 1151.040405,683.268799 1151.801880,708.724609 
	C1152.275024,724.544922 1149.671143,739.936768 1144.910278,754.885376 
	C1137.199097,779.098083 1130.436157,803.780640 1120.432007,827.043091 
	C1112.149170,846.302734 1100.431274,864.228760 1088.996582,881.946228 
	C1078.994141,897.444458 1067.369751,911.906616 1056.273071,926.684814 
	C1045.221313,941.403015 1030.764038,952.352844 1015.654419,962.508850 
	C1010.130615,966.221619 1004.408569,969.647766 998.986267,973.499329 
	C996.585754,975.204407 994.423523,977.429504 992.647278,979.790283 
	C988.927795,984.734192 989.849976,990.285339 994.150391,994.643005 
	C995.483643,995.993896 996.352234,998.480225 996.285583,1000.407043 
	C996.096252,1005.879578 994.794922,1011.336975 994.849854,1016.791016 
	C995.207886,1052.353760 990.079346,1086.972046 979.514404,1121.012451 
	C973.869873,1139.199463 968.211731,1157.200928 958.575134,1173.704590 
	C957.362854,1175.780762 955.390381,1177.400635 953.885803,1179.322510 
	C952.488525,1181.107178 950.978821,1182.881470 949.989502,1184.892212 
	C947.741455,1189.461060 946.307190,1194.502197 943.621704,1198.772461 
	C925.101990,1228.221191 905.521851,1256.958130 882.726929,1283.300659 
	C865.750122,1302.919556 848.154663,1322.003906 830.780457,1341.277222 
	C828.894531,1343.369263 826.647949,1345.136108 824.306763,1347.290039 
M914.328552,904.850281 
	C913.055176,909.155029 911.469238,913.395996 910.575989,917.778198 
	C908.913879,925.932556 908.157593,934.366333 914.586792,940.855530 
	C920.628845,946.953918 927.213501,952.615479 934.085876,957.766968 
	C944.777161,965.781067 953.514404,968.718933 968.501709,954.381104 
	C970.057556,952.892700 971.687683,951.346558 973.560730,950.346741 
	C987.253113,943.037781 998.687805,933.092651 1008.734558,921.329956 
	C1012.276978,917.182434 1017.052551,914.088318 1020.596252,909.941650 
	C1030.524170,898.324768 1040.659912,886.816772 1049.663940,874.498413 
	C1058.766357,862.045166 1067.501953,849.151245 1074.788818,835.585754 
	C1084.613647,817.295654 1093.286621,798.350891 1101.726685,779.363770 
	C1108.980225,763.046265 1117.399048,747.031067 1116.148071,728.067261 
	C1115.283813,714.965820 1107.733643,709.237305 1095.507446,714.095215 
	C1090.110840,716.239502 1085.022339,719.163757 1079.614258,721.273438 
	C1057.940308,729.728210 1039.402710,743.375366 1021.222839,757.318420 
	C1002.613953,771.590515 984.538696,786.675293 969.684509,805.067566 
	C961.549805,815.139954 953.160156,825.104370 946.076904,835.899292 
	C939.533569,845.871399 934.025330,856.634277 929.075378,867.510437 
	C923.649658,879.432007 919.385071,891.881897 914.328552,904.850281 
M566.801086,697.302551 
	C561.138062,715.779907 559.278992,735.003052 559.370422,753.997375 
	C559.490967,779.044983 561.334656,804.199707 564.281799,829.089966 
	C568.237610,862.498962 575.863770,895.189697 589.640869,926.162048 
	C591.116394,929.479126 592.133545,933.021667 593.129944,936.526062 
	C595.675781,945.480042 608.230957,951.448120 616.462341,947.278870 
	C622.240784,944.352051 627.702881,940.804321 633.456238,937.823425 
	C638.600647,935.158020 643.770020,932.330383 649.247131,930.561157 
	C660.557678,926.907776 665.348694,921.398132 665.265198,909.627136 
	C665.194519,899.662170 664.875244,889.670288 664.015320,879.746765 
	C662.954102,867.500122 661.668640,855.237793 659.672852,843.115234 
	C656.513245,823.923584 652.154846,804.921387 649.276306,785.693420 
	C646.002197,763.822876 639.511475,742.905640 631.595459,722.466003 
	C624.407898,703.907288 615.929382,685.842285 607.767700,667.672913 
	C606.304932,664.416626 603.942261,661.388306 601.413757,658.829102 
	C597.818604,655.190308 592.407043,654.629150 588.001038,657.179749 
	C581.231140,661.098816 575.397583,666.118164 573.017273,673.892212 
	C570.734253,681.348511 568.955811,688.959229 566.801086,697.302551 
M831.701050,1249.772095 
	C820.558105,1249.566162 816.761230,1241.213623 813.187378,1232.827393 
	C811.044495,1227.799072 809.782959,1222.373413 807.418396,1217.467041 
	C804.652893,1211.728760 799.217041,1209.880005 794.087524,1212.127563 
	C789.088989,1214.317627 786.901062,1219.739014 788.785461,1225.554321 
	C790.526184,1230.926392 791.994263,1236.433228 794.270447,1241.576172 
	C800.068604,1254.676758 807.449402,1266.494385 823.000244,1269.501953 
	C827.354675,1270.344116 831.932495,1270.068115 836.410645,1270.225342 
	C845.707214,1270.551880 852.518921,1266.219116 858.022339,1259.021606 
	C867.078064,1247.178345 869.862854,1233.193726 871.942749,1218.997803 
	C872.716736,1213.714844 869.296814,1209.162354 864.572937,1207.996948 
	C859.665894,1206.786255 854.850708,1209.034424 852.634094,1213.857910 
	C851.748047,1215.786133 851.487183,1217.993042 850.831299,1220.037476 
	C848.262878,1228.044189 845.879883,1236.121704 842.965759,1244.001953 
	C841.287109,1248.541138 837.502502,1250.519287 831.701050,1249.772095 
M674.575378,1258.050781 
	C682.685852,1261.700928 690.911377,1265.236450 699.944885,1261.683350 
	C721.305115,1253.281738 733.723999,1234.480591 733.303467,1211.570312 
	C733.170593,1204.332520 729.402161,1199.606079 723.541504,1199.326782 
	C717.493591,1199.038574 713.508545,1203.650024 712.715881,1211.094116 
	C711.518921,1222.335083 709.548035,1233.000366 697.984314,1239.233887 
	C690.951050,1243.025269 684.536072,1242.296631 680.962891,1234.994629 
	C678.865112,1230.707642 677.410095,1226.047119 676.153809,1221.421997 
	C674.509583,1215.368774 670.216553,1211.589355 664.949829,1212.226685 
	C659.651123,1212.868042 655.228638,1217.611816 655.953918,1223.527344 
	C657.545959,1236.512451 661.956604,1248.358154 672.658813,1256.909302 
	C673.045227,1257.218018 673.506775,1257.432861 674.575378,1258.050781 
M850.888611,1310.579590 
	C855.839661,1307.302979 861.162354,1304.462158 865.646851,1300.638428 
	C871.153137,1295.943481 872.605286,1286.717773 869.433350,1282.088379 
	C865.375366,1276.165894 857.100159,1274.178101 849.911072,1278.183228 
	C845.195984,1280.809937 840.649048,1284.097900 836.848389,1287.909058 
	C832.774780,1291.993896 829.250305,1297.096069 830.363892,1303.361572 
	C831.897339,1311.989746 839.687134,1314.786499 850.888611,1310.579590 
M708.570557,1281.070068 
	C703.501282,1278.147095 698.717957,1274.404541 693.289673,1272.510254 
	C686.621643,1270.183105 678.583984,1274.161621 676.641602,1279.940430 
	C674.188171,1287.239624 674.242065,1293.436035 681.441711,1298.318237 
	C686.128174,1301.495972 691.017334,1303.259155 696.763184,1303.122559 
	C702.306030,1302.990845 707.485901,1302.319946 710.461426,1297.000610 
	C713.439758,1291.676147 712.499084,1286.478882 708.570557,1281.070068 
z"/>
<path fill="#FE7B0D" opacity="1.000000" stroke="none" 
	d="
M185.193085,1562.747314 
	C181.475250,1562.446411 178.229462,1562.145386 175.432556,1561.885986 
	C180.899063,1554.926514 186.529037,1548.234741 191.581818,1541.132446 
	C194.245544,1537.388184 196.210754,1533.053345 197.956848,1528.767334 
	C203.722458,1514.615356 214.692841,1504.071289 223.031464,1491.718018 
	C233.608383,1476.048828 243.204941,1459.703125 252.888184,1443.448975 
	C265.548767,1422.197021 278.054230,1400.847900 290.282440,1379.345093 
	C296.675049,1368.104126 302.123047,1356.329224 308.374878,1345.003784 
	C315.765167,1331.616089 323.523621,1318.430176 331.261383,1305.238281 
	C331.848297,1304.237671 333.550751,1303.305420 334.719177,1303.323853 
	C345.022369,1303.486206 355.343750,1303.555054 365.617859,1304.261108 
	C383.181396,1305.468018 400.730194,1306.951782 418.257019,1308.616089 
	C445.195221,1311.173950 471.659271,1317.950684 498.980957,1317.301880 
	C510.106232,1317.037598 521.258789,1317.817383 532.394958,1318.229004 
	C534.136536,1318.293213 536.534668,1318.333130 537.472839,1319.400635 
	C542.166382,1324.741089 547.461853,1324.644775 553.327698,1322.019897 
	C553.909668,1321.759521 554.582275,1321.701660 554.288269,1321.772461 
	C562.090088,1344.113525 576.706299,1359.578857 598.556641,1367.233765 
	C609.946167,1371.223755 622.268188,1369.379028 634.198730,1367.844238 
	C637.660278,1367.399048 641.178101,1367.328491 644.612610,1366.746582 
	C655.535645,1364.896118 664.619141,1359.809082 671.662781,1351.130127 
	C674.051758,1348.186646 676.773560,1345.513184 679.420715,1342.631958 
	C688.396240,1354.701904 696.828247,1366.196045 705.457031,1377.540527 
	C707.739685,1380.541504 710.751038,1382.979126 713.176819,1385.885010 
	C714.083679,1386.971436 714.766541,1388.674805 714.711304,1390.063477 
	C714.396729,1397.975952 715.910828,1405.419189 718.138062,1413.069214 
	C722.016174,1426.389404 745.237854,1439.846313 757.517883,1438.235474 
	C764.020874,1437.382568 769.225647,1434.505737 772.018799,1428.920044 
	C775.458191,1422.042358 777.781555,1414.606567 780.961426,1406.452393 
	C788.725098,1407.014038 793.338867,1399.579956 799.527161,1394.467651 
	C807.863525,1387.580566 817.077698,1381.702881 825.054199,1374.445801 
	C838.085999,1362.589355 850.501160,1350.047729 862.993835,1337.611572 
	C865.841309,1334.777100 867.913818,1334.324829 872.209290,1335.224487 
	C879.391174,1336.728394 887.081482,1335.730957 894.550659,1335.991333 
	C896.302673,1336.052490 898.648010,1336.377441 899.666931,1337.520264 
	C910.285828,1349.430664 924.210999,1352.366577 939.279785,1353.373901 
	C953.893677,1354.350952 967.564392,1349.900269 981.619751,1347.572266 
	C989.608154,1346.249146 996.102722,1342.711914 1002.181580,1337.243286 
	C1004.875061,1334.820190 1010.102417,1334.408203 1014.156799,1334.474487 
	C1022.115662,1334.604614 1030.059692,1335.696777 1038.007568,1336.416504 
	C1040.818848,1336.671021 1043.619629,1337.210571 1046.431641,1337.261475 
	C1068.406738,1337.660034 1090.383545,1337.968628 1112.359619,1338.316284 
	C1113.475464,1338.333984 1114.589722,1338.453125 1116.524658,1338.578003 
	C1114.550049,1341.022461 1112.945312,1342.809692 1111.561401,1344.754028 
	C1099.996704,1361.000366 1087.958984,1376.940308 1077.066650,1393.627197 
	C1063.422363,1414.529907 1047.040771,1433.048096 1030.351807,1451.447754 
	C1014.580505,1468.835571 999.390869,1486.757080 984.147583,1504.616333 
	C960.915588,1531.835083 937.881775,1559.222778 914.651672,1586.443115 
	C913.553162,1587.730347 911.302612,1588.879883 909.700989,1588.746216 
	C902.625488,1588.156006 895.584351,1587.121338 888.543579,1586.154541 
	C880.667175,1585.073242 872.812195,1582.973145 864.934570,1582.907349 
	C824.774841,1582.571655 784.609131,1582.954834 744.449219,1582.627197 
	C732.008972,1582.525757 719.590210,1580.450562 707.144287,1580.222168 
	C687.841370,1579.867920 668.520752,1580.157593 649.213135,1580.490967 
	C636.059143,1580.718140 622.901978,1581.556519 609.943726,1578.469971 
	C585.249023,1572.588135 560.092468,1570.458008 534.850891,1568.634521 
	C516.949646,1567.341309 499.132080,1564.928101 481.256836,1563.228638 
	C460.728302,1561.276978 440.204071,1558.473145 419.630615,1557.968140 
	C376.008148,1556.897461 332.354156,1556.787354 288.714844,1556.908936 
	C274.122528,1556.949707 259.546661,1559.090088 244.943268,1559.918701 
	C225.193985,1561.039185 205.425430,1561.820435 185.193085,1562.747314 
z"/>
<path fill="#FE7A0D" opacity="1.000000" stroke="none" 
	d="
M1150.264282,1855.944336 
	C1149.931885,1812.324463 1150.057129,1769.171143 1149.083252,1726.042480 
	C1148.577026,1703.622925 1145.619019,1681.267578 1144.723022,1658.845093 
	C1144.026123,1641.405396 1144.868164,1623.906738 1144.912231,1606.434082 
	C1144.956665,1588.780151 1145.567993,1571.088379 1144.629883,1553.482544 
	C1143.666626,1535.405029 1141.351196,1517.445435 1144.015137,1499.305298 
	C1146.332520,1483.524536 1148.618530,1467.699951 1149.851807,1451.811768 
	C1150.829468,1439.217896 1149.982910,1426.493164 1150.317383,1413.836304 
	C1150.914185,1391.260986 1151.791504,1368.692993 1153.376099,1345.584351 
	C1155.559937,1349.306763 1157.871094,1352.961060 1159.903320,1356.764526 
	C1165.859497,1367.911255 1171.329102,1379.336182 1177.682617,1390.248291 
	C1186.878296,1406.041748 1196.928467,1421.336792 1206.174316,1437.102295 
	C1223.916382,1467.355225 1241.430420,1497.743042 1258.872192,1528.170654 
	C1266.110229,1540.797607 1278.781860,1542.054565 1288.042114,1530.716064 
	C1301.203979,1514.600464 1317.984375,1502.977295 1335.519287,1492.250610 
	C1341.467407,1488.612061 1347.125854,1484.499512 1353.077881,1480.868042 
	C1359.875610,1476.720581 1367.058105,1473.179321 1373.703613,1468.812012 
	C1382.991699,1462.708008 1391.935669,1456.080322 1401.032471,1449.684814 
	C1402.344116,1448.762573 1403.687866,1447.885986 1405.993652,1446.328369 
	C1405.159668,1451.088745 1404.177490,1454.735596 1403.941650,1458.430176 
	C1403.369629,1467.389404 1403.274170,1476.378174 1402.752197,1485.341431 
	C1401.795654,1501.767944 1400.993164,1518.213501 1399.525391,1534.597290 
	C1398.013428,1551.473022 1395.513672,1568.259399 1393.937622,1585.130615 
	C1391.945557,1606.455688 1390.601440,1627.840820 1388.688599,1649.174072 
	C1387.385132,1663.711426 1385.080566,1678.172974 1384.181396,1692.727661 
	C1383.548218,1702.977173 1384.969727,1713.339966 1384.654785,1723.626953 
	C1384.347168,1733.673706 1383.275635,1743.422729 1373.479858,1750.084351 
	C1364.158569,1756.423340 1355.711670,1764.051392 1346.912109,1771.151978 
	C1344.843750,1772.820923 1342.638062,1774.425415 1340.945312,1776.437866 
	C1326.051392,1794.142944 1308.025269,1808.428345 1290.190552,1822.890747 
	C1269.776489,1839.444702 1248.902466,1855.437012 1228.665405,1872.201050 
	C1218.574341,1880.560181 1209.554688,1890.201416 1199.870972,1899.066772 
	C1191.527710,1906.704712 1182.858521,1913.985840 1174.474121,1921.580200 
	C1170.041626,1925.594727 1165.863525,1929.895630 1161.665161,1934.160400 
	C1160.067749,1935.783325 1158.734741,1937.666504 1157.281250,1939.431274 
	C1156.769897,1939.177368 1156.258545,1938.923462 1155.747192,1938.669678 
	C1153.920166,1911.253418 1152.093140,1883.837280 1150.264282,1855.944336 
z"/>
<path fill="#FE7B0D" opacity="1.000000" stroke="none" 
	d="
M1297.739258,1492.685547 
	C1289.914307,1499.627563 1282.367920,1506.346802 1274.486938,1513.363892 
	C1270.848999,1507.117065 1267.235840,1500.826660 1263.541016,1494.584839 
	C1252.877930,1476.570190 1242.099121,1458.623535 1231.528076,1440.555176 
	C1224.565552,1428.654541 1217.890503,1416.585693 1211.075317,1404.598511 
	C1198.680664,1382.797852 1186.420166,1360.918579 1173.774170,1339.264526 
	C1170.728882,1334.050049 1166.394409,1329.588257 1161.807251,1323.693848 
	C1173.597900,1317.214966 1185.399048,1310.168457 1197.691895,1304.121460 
	C1212.153320,1297.007690 1227.198364,1291.082764 1241.681274,1284.009521 
	C1249.559326,1280.161865 1256.626587,1274.688354 1264.358032,1270.498779 
	C1281.027344,1261.466187 1297.887329,1252.785034 1314.678101,1243.976440 
	C1315.704590,1243.437988 1316.766724,1242.886719 1317.878906,1242.603516 
	C1343.455078,1236.090454 1366.059204,1222.817993 1389.447266,1211.301025 
	C1399.422241,1206.388916 1409.628296,1201.936523 1419.834717,1197.518799 
	C1420.874878,1197.068604 1423.057617,1197.874878 1424.009033,1198.810791 
	C1438.241577,1212.811523 1452.364502,1226.923706 1466.495972,1241.026978 
	C1477.674194,1252.182739 1490.095581,1262.379150 1499.700195,1274.758911 
	C1514.566284,1293.920288 1532.989990,1309.547852 1549.000732,1328.598145 
	C1543.629028,1331.899780 1537.999390,1335.284912 1532.444580,1338.788452 
	C1516.983276,1348.540283 1501.683594,1358.556030 1486.077759,1368.069702 
	C1466.224731,1380.172729 1445.639526,1391.142456 1426.302246,1404.002441 
	C1410.973755,1414.196533 1397.116455,1426.588867 1382.465332,1437.821899 
	C1377.074707,1441.955078 1371.393921,1445.741211 1365.647339,1449.371826 
	C1354.989258,1456.105225 1344.096436,1462.468140 1333.465698,1469.243164 
	C1321.554810,1476.833862 1309.825928,1484.710571 1297.739258,1492.685547 
z"/>
<path fill="#FEFEFE" opacity="1.000000" stroke="none" 
	d="
M1151.259033,1195.537842 
	C1142.097656,1190.323120 1132.736084,1190.985352 1123.344849,1193.157593 
	C1119.968384,1193.938477 1116.785400,1195.522095 1113.455688,1196.550049 
	C1110.733276,1197.390625 1106.471069,1199.395508 1105.434082,1198.353638 
	C1102.672974,1195.579346 1101.172974,1191.493042 1099.395508,1187.819946 
	C1098.476318,1185.920532 1097.827271,1183.831787 1097.413940,1181.757446 
	C1096.311890,1176.225220 1093.681763,1170.295410 1094.749878,1165.167603 
	C1097.656006,1151.216064 1100.997314,1137.128174 1106.311523,1123.960327 
	C1113.623779,1105.842529 1122.954468,1088.542847 1131.319824,1070.844971 
	C1134.226196,1064.696289 1136.580200,1058.278687 1139.638550,1052.211792 
	C1143.734741,1044.086426 1147.503052,1035.629639 1152.782593,1028.302612 
	C1162.703857,1014.533752 1173.493896,1001.380737 1184.175171,988.175842 
	C1187.180542,984.460327 1190.811401,981.131348 1194.588379,978.179016 
	C1216.485718,961.062378 1238.842773,944.676697 1266.389038,936.463806 
	C1266.491699,937.587036 1266.687744,938.808899 1266.701904,940.032898 
	C1266.824341,950.657959 1268.203125,961.463684 1266.748291,971.871826 
	C1263.603638,994.370422 1257.349731,1016.064697 1244.081177,1035.082642 
	C1243.416870,1036.034912 1242.816162,1037.039062 1242.266113,1038.062378 
	C1238.761719,1044.583496 1239.051147,1050.690186 1243.029663,1054.749512 
	C1247.065552,1058.867432 1255.388916,1059.697632 1261.209595,1056.391968 
	C1263.515259,1055.082642 1265.431030,1052.963013 1267.837891,1051.982056 
	C1272.362305,1050.138306 1277.040527,1047.921997 1281.788940,1047.543335 
	C1290.088379,1046.881592 1293.712646,1051.629395 1294.851807,1059.778564 
	C1297.288696,1077.211548 1288.325195,1089.828003 1277.941162,1101.759155 
	C1273.182861,1107.226440 1267.314209,1111.764404 1261.733276,1116.467651 
	C1256.566772,1120.821655 1254.964600,1125.972412 1257.755005,1130.925171 
	C1260.415405,1135.646973 1266.129883,1137.238770 1272.199219,1134.907837 
	C1277.610596,1132.829834 1282.875244,1130.213867 1288.444824,1128.746582 
	C1294.259766,1127.214600 1297.286987,1129.487915 1296.481812,1135.287109 
	C1295.636353,1141.377075 1293.729492,1147.573853 1291.021118,1153.104248 
	C1282.329102,1170.852539 1273.773560,1188.738037 1263.775757,1205.754150 
	C1255.631592,1219.615112 1245.545288,1232.341919 1236.190063,1245.478882 
	C1234.350708,1248.061890 1227.311157,1246.031250 1225.331421,1242.256470 
	C1223.955933,1239.634399 1222.923218,1236.764771 1222.179077,1233.891479 
	C1219.563965,1223.792236 1211.886841,1220.887085 1202.748413,1226.128540 
	C1196.464355,1229.732910 1189.908325,1233.059326 1183.120483,1235.545532 
	C1171.318604,1239.868408 1163.673462,1234.699951 1162.110474,1222.196899 
	C1161.575195,1217.915527 1161.531128,1213.347534 1159.901123,1209.484985 
	C1157.843384,1204.608276 1154.393311,1200.319092 1151.259033,1195.537842 
z"/>
<path fill="#7B4214" opacity="1.000000" stroke="none" 
	d="
M559.633423,1208.670044 
	C567.519531,1205.433838 575.213318,1202.698975 582.524719,1199.171509 
	C590.561340,1195.294067 598.521545,1197.885254 606.501404,1198.566650 
	C607.621582,1198.662476 608.918762,1200.772217 609.523010,1202.206909 
	C617.902954,1222.102173 626.176025,1242.042358 634.809143,1262.773438 
	C631.856140,1262.773438 629.145935,1262.887329 626.449158,1262.745605 
	C622.814331,1262.554810 619.195251,1262.046997 615.560059,1261.883179 
	C590.483215,1260.753296 574.212952,1274.613647 561.507507,1294.120483 
	C559.713196,1296.875366 558.201355,1298.001343 554.938782,1297.957520 
	C540.952087,1297.768799 526.940552,1298.360840 512.976807,1297.762329 
	C488.959961,1296.732788 464.959686,1295.475098 441.247498,1290.744995 
	C430.555054,1288.612305 419.534760,1288.118042 408.660675,1286.903076 
	C399.683472,1285.900146 390.702576,1284.930542 381.723297,1283.946045 
	C381.666351,1283.528809 381.609375,1283.111450 381.552429,1282.694092 
	C387.738220,1280.601318 393.989777,1278.682861 400.096375,1276.380005 
	C413.451630,1271.343750 426.843048,1266.376465 440.019196,1260.898804 
	C459.966980,1252.605591 479.818359,1244.069824 499.570038,1235.319580 
	C515.380066,1228.315552 530.953369,1220.778931 546.692871,1213.612915 
	C550.768372,1211.757324 555.073059,1210.405151 559.633423,1208.670044 
z"/>
<path fill="#F67CFB" opacity="1.000000" stroke="none" 
	d="
M305.697479,952.636475 
	C299.831573,960.277527 294.046112,967.547424 288.707947,975.132141 
	C283.259094,982.874146 279.511200,984.603577 270.129028,982.883484 
	C262.973755,981.571777 256.393890,979.306824 251.038132,973.995544 
	C248.260162,971.240662 246.798767,968.782898 248.731369,964.858032 
	C252.031723,958.155457 255.069275,951.319946 258.094330,944.485962 
	C262.478790,934.581055 259.359985,927.143188 248.913422,923.856567 
	C242.166885,921.734070 235.884354,919.202271 230.365128,914.591980 
	C227.193878,911.942993 225.825089,909.185547 226.299728,905.165710 
	C227.134781,898.093262 230.442978,892.430725 235.111618,887.141357 
	C243.500687,877.636719 243.329361,877.485474 255.135727,881.851440 
	C255.758972,882.081909 256.539490,882.147644 256.981506,882.568665 
	C263.809296,889.072144 271.206055,887.301819 278.997650,884.605286 
	C284.254486,882.786133 287.666992,878.803040 287.275391,872.560303 
	C286.777802,864.628296 286.033508,856.709290 285.248444,848.799255 
	C284.954315,845.835693 286.048584,844.069519 288.808167,843.134521 
	C290.379791,842.602051 291.852966,841.719604 293.452423,841.340393 
	C297.652863,840.344421 302.471771,837.924377 305.946411,839.159668 
	C308.790039,840.170776 310.210297,845.550415 311.984497,849.130737 
	C316.104370,857.444702 320.156372,865.795654 324.049438,874.217834 
	C328.043457,882.858398 337.781525,884.999023 345.225922,878.579163 
	C349.127319,875.214783 352.917938,871.701355 356.534668,868.034363 
	C359.176208,865.356201 361.401794,865.646118 363.661865,868.258667 
	C367.249420,872.405457 371.128174,876.369812 374.132782,880.908508 
	C375.013153,882.238403 374.066711,885.907410 372.724121,887.378906 
	C367.579315,893.017822 362.185608,898.491028 356.417358,903.486389 
	C346.358276,912.197693 345.086060,918.726318 352.479706,929.763550 
	C357.293488,936.949585 362.289459,944.033203 367.573425,950.877319 
	C370.841248,955.110046 370.479858,958.285950 366.164307,961.133301 
	C360.899536,964.607117 355.786377,968.391541 350.225464,971.314453 
	C343.863098,974.658691 338.099548,972.525208 334.812012,966.301880 
	C333.028870,962.926392 331.530304,959.401855 329.842468,955.974487 
	C324.901489,945.941162 317.506439,944.097656 308.364899,950.597046 
	C307.551239,951.175598 306.770355,951.800232 305.697479,952.636475 
M323.883759,913.045715 
	C327.082306,902.685303 320.580109,889.571350 309.910889,886.188477 
	C295.797943,881.713562 283.167999,886.047913 271.441132,894.014771 
	C270.642487,894.557312 270.028748,895.431213 269.459198,896.242432 
	C264.685272,903.041199 265.472748,920.431763 271.224396,926.485229 
	C277.138123,932.709351 284.119995,937.571716 292.625885,939.625427 
	C300.165741,941.445862 307.089630,940.229858 311.680939,933.383667 
	C315.933044,927.043457 319.621918,920.325500 323.883759,913.045715 
z"/>
<path fill="#FC8B00" opacity="1.000000" stroke="none" 
	d="
M1216.411377,1268.489502 
	C1214.815918,1272.632568 1212.112427,1274.812744 1208.276001,1276.330566 
	C1184.008301,1285.931274 1161.719971,1299.200806 1140.341431,1313.998291 
	C1134.033203,1318.364746 1127.755615,1319.079590 1120.311768,1318.285767 
	C1110.914307,1317.283813 1101.347778,1317.865112 1091.854126,1317.772705 
	C1089.717163,1317.751953 1087.579956,1317.769531 1085.402954,1317.769531 
	C1083.992920,1309.559326 1082.364380,1301.909302 1081.483154,1294.174316 
	C1081.040527,1290.288818 1082.001465,1286.251221 1082.251099,1282.277588 
	C1083.615967,1260.557617 1084.941895,1238.835327 1086.332397,1217.117065 
	C1086.459229,1215.135132 1086.948364,1213.176392 1087.273682,1211.179810 
	C1087.598389,1211.179810 1088.019531,1211.050415 1088.171753,1211.198242 
	C1098.686646,1221.410278 1106.038940,1222.552734 1119.575928,1216.494751 
	C1123.496460,1214.740112 1127.669678,1213.355103 1131.867798,1212.460938 
	C1138.564575,1211.034546 1139.856567,1212.453857 1140.939575,1219.192871 
	C1141.935791,1225.392944 1142.962402,1231.713257 1145.080688,1237.581665 
	C1149.499512,1249.823242 1160.549683,1256.710938 1173.577271,1257.304565 
	C1182.704102,1257.720459 1190.955322,1255.064453 1199.247559,1252.054810 
	C1201.260254,1251.324341 1203.222778,1250.455688 1204.489136,1249.942261 
	C1209.411987,1255.278809 1213.964478,1260.213745 1218.768433,1265.421387 
	C1218.431763,1265.857178 1217.531128,1267.022949 1216.411377,1268.489502 
z"/>
<path fill="#F47BF9" opacity="1.000000" stroke="none" 
	d="
M1306.542236,543.530518 
	C1316.269287,538.176636 1318.123657,538.808167 1325.011597,547.114380 
	C1329.766479,552.848206 1330.055908,559.580017 1330.747925,566.320923 
	C1331.001831,568.794006 1330.856812,571.315247 1330.794678,573.812073 
	C1330.664307,579.049072 1332.311523,583.418884 1337.209473,585.833008 
	C1342.128052,588.257263 1347.040161,587.565918 1351.314819,584.319580 
	C1355.680054,581.004395 1359.694214,577.230530 1363.922852,573.730896 
	C1371.488403,567.469543 1379.051514,561.203369 1386.710815,555.057739 
	C1390.972656,551.638184 1393.545288,551.844299 1397.017578,555.821960 
	C1402.146484,561.697449 1407.479004,567.404053 1409.687622,575.282166 
	C1410.681274,578.826416 1410.016113,581.007629 1406.702515,582.504333 
	C1402.929810,584.208435 1399.135498,585.885010 1395.474487,587.809387 
	C1392.707031,589.263977 1389.782227,590.715088 1387.543701,592.822266 
	C1381.781006,598.246826 1383.234131,606.876709 1390.494019,610.092773 
	C1393.440063,611.397888 1396.874878,612.006226 1400.120728,612.144348 
	C1407.270508,612.448730 1414.441406,612.239319 1421.603760,612.264832 
	C1427.732422,612.286621 1432.618652,619.010803 1429.917114,624.663757 
	C1424.402832,636.202026 1415.851196,646.528625 1399.882568,641.460693 
	C1392.402832,639.086975 1384.239502,638.396545 1376.330200,637.963318 
	C1366.052002,637.400330 1361.073364,642.561096 1360.879517,653.046997 
	C1360.685669,663.537354 1360.818359,674.033630 1360.808350,684.527344 
	C1360.807129,685.834290 1360.808228,687.141235 1360.808228,688.774048 
	C1356.076416,688.774048 1351.634521,689.006104 1347.249023,688.611450 
	C1346.147583,688.512329 1344.349121,686.391357 1344.363892,685.218506 
	C1344.470093,676.817749 1341.750732,669.217468 1338.380371,661.755066 
	C1333.488770,650.924377 1325.378052,649.451477 1315.996094,656.604187 
	C1310.279053,660.963013 1303.550903,664.089294 1297.035278,667.274536 
	C1292.604736,669.440430 1289.015259,668.187805 1286.170410,663.578369 
	C1281.216064,655.550659 1278.800293,646.864136 1278.422241,637.633240 
	C1278.345703,635.762878 1280.150757,633.012512 1281.869141,632.020813 
	C1287.221313,628.932068 1292.430542,625.739929 1299.447754,626.755554 
	C1304.897217,627.544312 1309.042236,621.680542 1308.970581,616.210815 
	C1308.842529,606.431580 1305.109863,598.676575 1298.494507,591.409058 
	C1292.740723,585.088074 1288.278931,577.500732 1283.804321,570.133911 
	C1280.176025,564.160156 1280.780396,561.986938 1286.286743,557.864685 
	C1292.807739,552.982849 1299.579468,548.436035 1306.542236,543.530518 
M1334.677612,590.835999 
	C1332.310913,592.362183 1330.063599,594.128540 1327.557129,595.372986 
	C1316.940552,600.644287 1311.247681,618.050049 1316.769165,628.734741 
	C1322.922485,640.642090 1342.742920,647.104675 1354.733643,641.178345 
	C1364.093872,636.552124 1370.776489,629.297729 1374.869507,619.868225 
	C1377.262939,614.353943 1377.412231,608.261169 1373.951294,603.090454 
	C1368.135010,594.401062 1350.534912,584.268127 1334.677612,590.835999 
z"/>
<path fill="#7A4214" opacity="1.000000" stroke="none" 
	d="
M991.107300,1232.849121 
	C979.208374,1228.083496 967.691345,1223.409058 955.822571,1218.591919 
	C959.871948,1211.932129 963.551575,1205.655396 967.529419,1199.573730 
	C968.145752,1198.631348 970.116089,1198.218140 971.479431,1198.175659 
	C985.103882,1197.750488 998.730774,1197.302490 1012.360168,1197.161377 
	C1028.519287,1196.994019 1044.681519,1197.122314 1060.842407,1197.122559 
	C1062.644531,1197.122559 1064.446655,1197.122559 1067.088257,1197.122559 
	C1065.342163,1224.658203 1063.628906,1251.675049 1061.836670,1279.937988 
	C1059.651855,1278.363647 1058.231934,1277.642212 1057.201782,1276.552490 
	C1045.051758,1263.698364 1030.254639,1254.422852 1015.161438,1245.607300 
	C1007.439026,1241.096680 999.390320,1237.144653 991.107300,1232.849121 
z"/>
<path fill="#FFFFFF" opacity="1.000000" stroke="none" 
	d="
M1259.980225,779.126221 
	C1253.444702,763.240173 1257.018555,749.221069 1266.381226,736.215515 
	C1269.638672,731.690613 1273.080566,727.103333 1277.247925,723.474548 
	C1283.490479,718.038635 1291.447876,717.398499 1299.390015,718.059937 
	C1303.977539,718.441956 1309.011719,724.605957 1308.997803,729.258423 
	C1308.980347,735.078613 1304.293457,740.497620 1298.843262,740.999146 
	C1291.074341,741.714050 1282.895874,750.386169 1280.799683,757.936462 
	C1278.689819,765.535828 1282.817993,771.795959 1283.349976,778.744507 
	C1284.602173,795.098328 1286.297607,811.662354 1275.426270,825.758118 
	C1272.359009,829.734985 1267.509521,832.501038 1263.124512,835.262085 
	C1255.125732,840.298584 1246.947510,845.067993 1238.677002,849.647156 
	C1234.354248,852.040527 1229.775024,852.932251 1224.696777,851.018005 
	C1218.120117,848.538879 1216.152100,835.926819 1222.892822,831.728577 
	C1230.732056,826.846130 1238.722168,822.110474 1247.023926,818.089966 
	C1257.482056,813.025208 1261.535645,805.873413 1260.112793,793.880798 
	C1259.553101,789.162903 1260.005859,784.324890 1259.980225,779.126221 
z"/>
<path fill="#F9F9F9" opacity="1.000000" stroke="none" 
	d="
M652.573547,1296.457397 
	C656.434082,1303.281860 660.073975,1309.816772 663.763794,1316.323364 
	C666.357971,1320.897827 665.365967,1327.613770 661.603821,1331.422974 
	C658.447327,1334.619019 655.500977,1338.025391 652.296326,1341.170044 
	C650.922058,1342.518677 649.128906,1343.440552 646.833008,1345.038574 
	C646.250732,1338.344482 645.583435,1332.440918 645.260925,1326.518555 
	C644.854004,1319.046021 640.957825,1314.189575 635.019470,1314.203491 
	C628.998596,1314.217651 624.771362,1319.103149 624.900208,1326.551147 
	C625.020142,1333.486328 625.635803,1340.412842 626.069153,1347.969727 
	C619.220581,1347.969727 612.734741,1347.969727 605.867249,1347.969727 
	C610.419128,1339.166748 607.192505,1330.995850 606.124878,1323.020020 
	C605.492188,1318.292969 601.073303,1316.174927 596.252625,1316.363403 
	C591.501953,1316.548950 587.635254,1320.299805 587.017578,1325.358032 
	C586.678284,1328.135864 586.956848,1330.989136 586.956848,1333.990723 
	C576.018066,1328.043823 572.905884,1313.968018 580.176941,1303.047241 
	C584.525818,1296.515503 589.818542,1290.903442 596.891968,1286.900391 
	C603.413147,1283.209717 610.083008,1281.737183 617.431763,1282.253906 
	C624.223145,1282.731201 631.031921,1282.964600 637.834229,1283.279419 
	C641.110779,1283.431030 643.383240,1284.144287 644.956421,1287.873047 
	C646.318848,1291.102417 649.819092,1293.429810 652.573547,1296.457397 
z"/>
<path fill="#F98A00" opacity="1.000000" stroke="none" 
	d="
M966.390259,1245.757690 
	C974.788513,1248.986572 983.275269,1251.239868 990.822021,1255.258301 
	C1013.052063,1267.095581 1034.084961,1280.915283 1051.428833,1299.358398 
	C1055.430908,1303.614014 1060.349243,1308.897217 1059.812378,1317.278687 
	C1043.305542,1315.893555 1027.048096,1314.529297 1010.841858,1313.169434 
	C1009.754089,1308.951904 1008.703186,1304.635620 1007.525269,1300.354126 
	C1003.502014,1285.730225 992.994202,1277.811890 979.691040,1271.887085 
	C961.416077,1263.748047 942.738770,1263.386597 922.113098,1267.036865 
	C929.757751,1256.446655 936.667725,1246.874390 944.072876,1236.616089 
	C951.445007,1239.625977 958.747070,1242.607300 966.390259,1245.757690 
z"/>
<path fill="#FFFFFF" opacity="1.000000" stroke="none" 
	d="
M362.013611,1019.703003 
	C362.516754,1008.139832 369.736572,1004.695007 381.460938,1007.428955 
	C393.608582,1010.261597 403.319092,1017.656006 410.622437,1028.038208 
	C414.991699,1034.249390 415.960815,1041.391968 416.964874,1048.542358 
	C418.115845,1056.738892 418.776672,1065.008423 420.075500,1073.178589 
	C421.009186,1079.052124 428.879761,1085.693970 434.861420,1085.955566 
	C441.624054,1086.251587 446.381531,1093.168457 445.932709,1098.210693 
	C445.339478,1104.875732 439.436890,1110.138550 432.926727,1109.356323 
	C416.431915,1107.374268 404.871216,1097.939331 398.473938,1083.297974 
	C395.271301,1075.968018 395.308014,1067.200928 394.040497,1059.058838 
	C393.566833,1056.015991 393.532928,1052.903320 393.328918,1049.820312 
	C392.576294,1038.446411 384.453461,1031.647095 374.418427,1030.217285 
	C367.691162,1029.258789 363.862549,1026.307861 362.013611,1019.703003 
z"/>
<path fill="#F9F9F9" opacity="1.000000" stroke="none" 
	d="
M984.703491,1324.821045 
	C981.288452,1326.027710 978.177185,1327.016479 974.518433,1328.179321 
	C974.368225,1325.089966 974.326233,1322.655151 974.117004,1320.234985 
	C973.621582,1314.505737 969.490356,1310.359131 964.240601,1310.220459 
	C958.839966,1310.078003 954.416443,1314.343872 953.907715,1320.312866 
	C953.571655,1324.256714 953.386719,1328.213379 953.115723,1332.452393 
	C949.973572,1332.452393 947.364136,1332.452393 944.120667,1332.452393 
	C944.120667,1328.840332 944.298889,1325.080933 944.079529,1321.344971 
	C943.735596,1315.485718 939.725220,1311.053711 934.403381,1310.273682 
	C928.002747,1309.335693 922.659424,1314.870483 923.256775,1321.753296 
	C923.464111,1324.142090 923.503235,1326.545654 923.635742,1329.284912 
	C913.578369,1325.293091 904.666687,1313.300903 905.261902,1305.140625 
	C905.518127,1301.628296 905.943726,1298.142334 910.627930,1297.477173 
	C911.999268,1297.282349 913.505005,1296.345459 914.478638,1295.307373 
	C921.518127,1287.801758 930.728516,1286.198486 940.328735,1285.347412 
	C954.843140,1284.060913 968.040771,1288.105591 980.169800,1295.582397 
	C989.765564,1301.497559 992.106262,1317.326782 984.703491,1324.821045 
z"/>
<path fill="#7A4214" opacity="1.000000" stroke="none" 
	d="
M1306.911987,1224.791992 
	C1291.368164,1233.000854 1276.181396,1241.082764 1260.994629,1249.164673 
	C1260.687134,1248.812622 1260.379639,1248.460571 1260.072266,1248.108521 
	C1262.828857,1244.125244 1265.643677,1240.180786 1268.329590,1236.150513 
	C1273.483765,1228.416870 1278.401123,1220.517944 1283.794067,1212.956665 
	C1285.093628,1211.134644 1287.818726,1209.377319 1289.971069,1209.271240 
	C1303.405029,1208.609497 1316.880005,1208.730591 1330.304932,1207.957397 
	C1337.378662,1207.549927 1344.377930,1205.855347 1351.411621,1204.746704 
	C1352.959351,1204.502808 1354.510498,1204.280396 1356.395142,1205.090332 
	C1352.857178,1206.684326 1349.380127,1208.434326 1345.770264,1209.844116 
	C1332.961060,1214.847168 1320.106323,1219.734131 1306.911987,1224.791992 
z"/>
<path fill="#030100" opacity="1.000000" stroke="none" 
	d="
M725.092529,1731.071777 
	C731.248230,1743.732788 726.996521,1754.877563 720.344482,1765.101196 
	C714.297058,1774.395386 707.168274,1776.862549 698.734375,1774.529297 
	C690.072266,1772.133057 683.843384,1764.828369 683.621399,1754.530029 
	C683.470886,1747.544800 684.576355,1740.285645 686.546265,1733.567261 
	C688.748474,1726.056396 694.949097,1721.462280 702.546448,1720.082397 
	C712.236206,1718.322266 719.686340,1722.503418 725.092529,1731.071777 
z"/>
<path fill="#030100" opacity="1.000000" stroke="none" 
	d="
M504.337463,1760.525879 
	C495.430359,1745.431641 502.483307,1719.434937 517.393188,1711.293457 
	C525.230042,1707.014160 538.316895,1711.838745 540.094910,1721.058960 
	C542.823914,1735.210083 541.790039,1749.454956 531.528076,1760.937866 
	C523.467468,1769.957397 513.117859,1769.569580 504.337463,1760.525879 
z"/>
<path fill="#030100" opacity="1.000000" stroke="none" 
	d="
M883.832275,1739.424316 
	C884.692383,1745.097168 886.149353,1750.498901 885.782227,1755.773926 
	C885.421265,1760.961792 883.613708,1766.177002 881.715515,1771.100342 
	C878.806152,1778.646362 874.024170,1781.373047 865.789917,1781.165405 
	C852.883545,1780.839722 845.706482,1773.776001 845.770386,1761.039185 
	C845.792725,1756.588013 846.228394,1752.060181 847.144714,1747.708130 
	C849.318604,1737.383179 859.570251,1728.810669 868.816650,1728.789673 
	C876.289490,1728.772705 879.931641,1733.887939 883.832275,1739.424316 
z"/>
<path fill="#FFFFFE" opacity="1.000000" stroke="none" 
	d="
M914.471497,904.475952 
	C919.385071,891.881897 923.649658,879.432007 929.075378,867.510437 
	C934.025330,856.634277 939.533569,845.871399 946.076904,835.899292 
	C953.160156,825.104370 961.549805,815.139954 969.684509,805.067566 
	C984.538696,786.675293 1002.613953,771.590515 1021.222839,757.318420 
	C1039.402710,743.375366 1057.940308,729.728210 1079.614258,721.273438 
	C1085.022339,719.163757 1090.110840,716.239502 1095.507446,714.095215 
	C1107.733643,709.237305 1115.283813,714.965820 1116.148071,728.067261 
	C1117.399048,747.031067 1108.980225,763.046265 1101.726685,779.363770 
	C1093.286621,798.350891 1084.613647,817.295654 1074.788818,835.585754 
	C1067.501953,849.151245 1058.766357,862.045166 1049.663940,874.498413 
	C1040.659912,886.816772 1030.524170,898.324768 1020.596252,909.941650 
	C1017.052551,914.088318 1012.276978,917.182434 1008.734558,921.329956 
	C998.687805,933.092651 987.253113,943.037781 973.560730,950.346741 
	C971.687683,951.346558 970.057556,952.892700 968.501709,954.381104 
	C953.514404,968.718933 944.777161,965.781067 934.085876,957.766968 
	C927.213501,952.615479 920.628845,946.953918 914.586792,940.855530 
	C908.157593,934.366333 908.913879,925.932556 910.575989,917.778198 
	C911.469238,913.395996 913.055176,909.155029 914.471497,904.475952 
z"/>
<path fill="#FFFFFE" opacity="1.000000" stroke="none" 
	d="
M566.878357,696.902344 
	C568.955811,688.959229 570.734253,681.348511 573.017273,673.892212 
	C575.397583,666.118164 581.231140,661.098816 588.001038,657.179749 
	C592.407043,654.629150 597.818604,655.190308 601.413757,658.829102 
	C603.942261,661.388306 606.304932,664.416626 607.767700,667.672913 
	C615.929382,685.842285 624.407898,703.907288 631.595459,722.466003 
	C639.511475,742.905640 646.002197,763.822876 649.276306,785.693420 
	C652.154846,804.921387 656.513245,823.923584 659.672852,843.115234 
	C661.668640,855.237793 662.954102,867.500122 664.015320,879.746765 
	C664.875244,889.670288 665.194519,899.662170 665.265198,909.627136 
	C665.348694,921.398132 660.557678,926.907776 649.247131,930.561157 
	C643.770020,932.330383 638.600647,935.158020 633.456238,937.823425 
	C627.702881,940.804321 622.240784,944.352051 616.462341,947.278870 
	C608.230957,951.448120 595.675781,945.480042 593.129944,936.526062 
	C592.133545,933.021667 591.116394,929.479126 589.640869,926.162048 
	C575.863770,895.189697 568.237610,862.498962 564.281799,829.089966 
	C561.334656,804.199707 559.490967,779.044983 559.370422,753.997375 
	C559.278992,735.003052 561.138062,715.779907 566.878357,696.902344 
z"/>
<path fill="#030100" opacity="1.000000" stroke="none" 
	d="
M832.124756,1249.773682 
	C837.502502,1250.519287 841.287109,1248.541138 842.965759,1244.001953 
	C845.879883,1236.121704 848.262878,1228.044189 850.831299,1220.037476 
	C851.487183,1217.993042 851.748047,1215.786133 852.634094,1213.857910 
	C854.850708,1209.034424 859.665894,1206.786255 864.572937,1207.996948 
	C869.296814,1209.162354 872.716736,1213.714844 871.942749,1218.997803 
	C869.862854,1233.193726 867.078064,1247.178345 858.022339,1259.021606 
	C852.518921,1266.219116 845.707214,1270.551880 836.410645,1270.225342 
	C831.932495,1270.068115 827.354675,1270.344116 823.000244,1269.501953 
	C807.449402,1266.494385 800.068604,1254.676758 794.270447,1241.576172 
	C791.994263,1236.433228 790.526184,1230.926392 788.785461,1225.554321 
	C786.901062,1219.739014 789.088989,1214.317627 794.087524,1212.127563 
	C799.217041,1209.880005 804.652893,1211.728760 807.418396,1217.467041 
	C809.782959,1222.373413 811.044495,1227.799072 813.187378,1232.827393 
	C816.761230,1241.213623 820.558105,1249.566162 832.124756,1249.773682 
z"/>
<path fill="#030100" opacity="1.000000" stroke="none" 
	d="
M674.254333,1257.871094 
	C673.506775,1257.432861 673.045227,1257.218018 672.658813,1256.909302 
	C661.956604,1248.358154 657.545959,1236.512451 655.953918,1223.527344 
	C655.228638,1217.611816 659.651123,1212.868042 664.949829,1212.226685 
	C670.216553,1211.589355 674.509583,1215.368774 676.153809,1221.421997 
	C677.410095,1226.047119 678.865112,1230.707642 680.962891,1234.994629 
	C684.536072,1242.296631 690.951050,1243.025269 697.984314,1239.233887 
	C709.548035,1233.000366 711.518921,1222.335083 712.715881,1211.094116 
	C713.508545,1203.650024 717.493591,1199.038574 723.541504,1199.326782 
	C729.402161,1199.606079 733.170593,1204.332520 733.303467,1211.570312 
	C733.723999,1234.480591 721.305115,1253.281738 699.944885,1261.683350 
	C690.911377,1265.236450 682.685852,1261.700928 674.254333,1257.871094 
z"/>
<path fill="#FF4A00" opacity="1.000000" stroke="none" 
	d="
M850.541016,1310.754883 
	C839.687134,1314.786499 831.897339,1311.989746 830.363892,1303.361572 
	C829.250305,1297.096069 832.774780,1291.993896 836.848389,1287.909058 
	C840.649048,1284.097900 845.195984,1280.809937 849.911072,1278.183228 
	C857.100159,1274.178101 865.375366,1276.165894 869.433350,1282.088379 
	C872.605286,1286.717773 871.153137,1295.943481 865.646851,1300.638428 
	C861.162354,1304.462158 855.839661,1307.302979 850.541016,1310.754883 
z"/>
<path fill="#FF4A00" opacity="1.000000" stroke="none" 
	d="
M708.820129,1281.343994 
	C712.499084,1286.478882 713.439758,1291.676147 710.461426,1297.000610 
	C707.485901,1302.319946 702.306030,1302.990845 696.763184,1303.122559 
	C691.017334,1303.259155 686.128174,1301.495972 681.441711,1298.318237 
	C674.242065,1293.436035 674.188171,1287.239624 676.641602,1279.940430 
	C678.583984,1274.161621 686.621643,1270.183105 693.289673,1272.510254 
	C698.717957,1274.404541 703.501282,1278.147095 708.820129,1281.343994 
z"/>
<path fill="#030202" opacity="1.000000" stroke="none" 
	d="
M323.721283,913.409790 
	C319.621918,920.325500 315.933044,927.043457 311.680939,933.383667 
	C307.089630,940.229858 300.165741,941.445862 292.625885,939.625427 
	C284.119995,937.571716 277.138123,932.709351 271.224396,926.485229 
	C265.472748,920.431763 264.685272,903.041199 269.459198,896.242432 
	C270.028748,895.431213 270.642487,894.557312 271.441132,894.014771 
	C283.167999,886.047913 295.797943,881.713562 309.910889,886.188477 
	C320.580109,889.571350 327.082306,902.685303 323.721283,913.409790 
M286.007843,909.840881 
	C286.023804,915.094360 289.796631,919.974548 294.912079,920.859863 
	C296.112579,921.067627 298.077118,920.446228 298.738434,919.523987 
	C300.875763,916.542908 302.763763,913.338196 304.366699,910.034790 
	C305.434540,907.834229 306.228210,904.523376 302.710236,904.186951 
	C296.701874,903.612427 290.194519,902.670776 286.007843,909.840881 
z"/>
<path fill="#030202" opacity="1.000000" stroke="none" 
	d="
M1335.031738,590.667114 
	C1350.534912,584.268127 1368.135010,594.401062 1373.951294,603.090454 
	C1377.412231,608.261169 1377.262939,614.353943 1374.869507,619.868225 
	C1370.776489,629.297729 1364.093872,636.552124 1354.733643,641.178345 
	C1342.742920,647.104675 1322.922485,640.642090 1316.769165,628.734741 
	C1311.247681,618.050049 1316.940552,600.644287 1327.557129,595.372986 
	C1330.063599,594.128540 1332.310913,592.362183 1335.031738,590.667114 
M1353.898071,612.411560 
	C1351.049194,611.266113 1348.702637,607.907410 1345.006226,610.567749 
	C1342.764038,612.181519 1340.333496,613.534058 1338.093140,615.150269 
	C1337.087524,615.875671 1335.559082,617.057922 1335.659790,617.857422 
	C1335.809570,619.045837 1336.967651,620.488770 1338.091187,621.109741 
	C1344.535522,624.672241 1351.896851,620.900574 1353.898071,612.411560 
z"/>
<path fill="#FFE376" opacity="1.000000" stroke="none" 
	d="
M286.019775,909.431396 
	C290.194519,902.670776 296.701874,903.612427 302.710236,904.186951 
	C306.228210,904.523376 305.434540,907.834229 304.366699,910.034790 
	C302.763763,913.338196 300.875763,916.542908 298.738434,919.523987 
	C298.077118,920.446228 296.112579,921.067627 294.912079,920.859863 
	C289.796631,919.974548 286.023804,915.094360 286.019775,909.431396 
z"/>
<path fill="#FFE376" opacity="1.000000" stroke="none" 
	d="
M1354.131592,612.673096 
	C1351.896851,620.900574 1344.535522,624.672241 1338.091187,621.109741 
	C1336.967651,620.488770 1335.809570,619.045837 1335.659790,617.857422 
	C1335.559082,617.057922 1337.087524,615.875671 1338.093140,615.150269 
	C1340.333496,613.534058 1342.764038,612.181519 1345.006226,610.567749 
	C1348.702637,607.907410 1351.049194,611.266113 1354.131592,612.673096 
z"/>
</svg>